<?xml version="1.0" encoding="UTF-8"?>
<svg width="8px" height="4px" viewBox="0 0 7 4" version="1.1" xmlns="http://www.w3.org/2000/svg" xmlns:xlink="http://www.w3.org/1999/xlink">
    <path fill="#fd6961" d="M 4.387,3.719 C 4.385,3.719 4.383,3.719 4.383,3.719 4.385,3.719 4.387,3.719 4.391,3.719 4.39,3.719 4.387,3.719 4.387,3.719 Z M 4.264,3.787 C 4.284,3.787 4.301,3.776 4.319,3.764 4.306,3.776 4.294,3.787 4.276,3.787 4.273,3.787 4.269,3.787 4.264,3.787 Z M 1.594,3.165 C 1.593,3.165 1.59,3.177 1.592,3.177 1.592,3.177 1.593,3.165 1.594,3.165 Z M 1.401,2.804 C 1.404,2.804 1.396,2.804 1.396,2.793 1.399,2.804 1.401,2.804 1.404,2.804 1.404,2.804 1.402,2.804 1.401,2.804 Z M 0.2961,2.578 0.2971,2.578 C 0.2971,2.578 0.2961,2.578 0.2961,2.578 0.2961,2.578 0.2961,2.578 0.2961,2.578 Z M 1.385,1.99 C 1.381,1.99 1.379,1.99 1.375,2.002 1.368,2.002 1.363,1.99 1.359,1.99 1.368,1.99 1.376,1.99 1.385,1.99 Z M 1.212,1.809 C 1.21,1.809 1.208,1.809 1.206,1.809 1.205,1.809 1.204,1.809 1.201,1.809 1.205,1.809 1.209,1.809 1.212,1.809 Z M 1.466,1.776 C 1.465,1.776 1.465,1.776 1.464,1.776 1.464,1.776 1.464,1.776 1.466,1.776 Z M 1.155,1.177 C 1.154,1.177 1.152,1.177 1.151,1.177 1.139,1.154 1.115,1.154 1.096,1.143 1.116,1.154 1.137,1.154 1.155,1.177 Z M 1.063,1.064 C 1.074,1.052 1.081,1.03 1.086,1.007 1.079,1.03 1.07,1.041 1.074,1.064 1.071,1.064 1.067,1.064 1.063,1.064 Z M 2.913,0.4083 C 2.91,0.4083 2.905,0.4083 2.902,0.4083 2.905,0.4083 2.908,0.4083 2.91,0.4083 2.91,0.4083 2.911,0.4083 2.913,0.4083 Z M 5.661,0.7699 C 5.659,0.7699 5.659,0.7699 5.654,0.7699 5.661,0.7812 5.657,0.7925 5.654,0.8151 5.66,0.7925 5.668,0.7812 5.651,0.7699 5.654,0.7699 5.654,0.7699 5.654,0.7699 5.653,0.7699 5.651,0.7586 5.653,0.7586 5.657,0.7586 5.659,0.7699 5.661,0.7699 Z M 5.4,1.03 C 5.442,1.007 5.483,0.9733 5.494,0.9168 5.495,0.9168 5.498,0.9168 5.5,0.9168 5.467,0.9507 5.428,0.9846 5.4,1.03 Z M 5.588,1.222 C 5.584,1.222 5.581,1.222 5.579,1.211 5.581,1.222 5.585,1.222 5.588,1.222 Z M 5.649,1.233 C 5.649,1.233 5.651,1.233 5.649,1.222 5.651,1.222 5.651,1.233 5.654,1.233 5.651,1.233 5.65,1.233 5.649,1.233 Z M 6.639,1.742 C 6.639,1.742 6.639,1.742 6.639,1.742 6.637,1.742 6.637,1.742 6.634,1.742 6.637,1.742 6.637,1.742 6.639,1.742 Z M 6.889,2.081 C 6.89,2.092 6.889,2.092 6.89,2.092 6.883,2.092 6.877,2.092 6.869,2.103 6.877,2.092 6.884,2.092 6.889,2.081 Z M 6.625,2.386 6.623,2.386 C 6.625,2.386 6.625,2.386 6.625,2.386 6.625,2.386 6.625,2.386 6.625,2.386 L 6.625,2.386 C 6.626,2.386 6.627,2.386 6.629,2.386 L 6.629,2.386 C 6.627,2.386 6.626,2.386 6.625,2.386 Z M 6.404,2.804 C 6.404,2.804 6.404,2.804 6.404,2.815 6.404,2.815 6.403,2.804 6.403,2.804 6.403,2.804 6.403,2.804 6.404,2.804 Z M 2.229,3.346 C 2.237,3.335 2.239,3.346 2.245,3.346 2.238,3.346 2.231,3.358 2.225,3.358 2.229,3.358 2.225,3.346 2.229,3.346 Z M 1.294,2.25 C 1.294,2.25 1.294,2.25 1.294,2.25 L 1.292,2.25 C 1.294,2.25 1.292,2.25 1.294,2.25 Z M 1.045,2.16 C 1.046,2.16 1.047,2.16 1.05,2.16 1.047,2.16 1.046,2.16 1.045,2.16 1.045,2.16 1.045,2.16 1.045,2.16 Z M 1.436,1.934 C 1.435,1.934 1.435,1.934 1.433,1.934 1.435,1.934 1.435,1.922 1.436,1.922 L 1.436,1.934 Z M 0.9215,1.222 C 0.9265,1.233 0.9215,1.244 0.9205,1.244 0.9195,1.233 0.9124,1.233 0.9034,1.233 0.9094,1.222 0.9144,1.222 0.9215,1.222 Z M 0.7926,1.244 0.7936,1.244 C 0.7936,1.244 0.7936,1.256 0.7936,1.256 0.7946,1.256 0.7956,1.244 0.7926,1.244 Z M 0.9356,1.154 0.9346,1.154 0.9356,1.154 Z M 1.171,1.041 C 1.171,1.03 1.165,1.03 1.169,1.018 1.169,1.018 1.169,1.018 1.17,1.018 1.165,1.03 1.171,1.03 1.171,1.041 Z M 2.92,0.6682 C 2.908,0.6569 2.9,0.6343 2.885,0.6343 2.888,0.6343 2.888,0.6343 2.89,0.6343 2.89,0.6343 2.889,0.6343 2.89,0.6343 L 2.89,0.6343 C 2.891,0.6569 2.896,0.6682 2.92,0.6682 2.92,0.6682 2.922,0.6682 2.922,0.6682 2.922,0.6682 2.921,0.6682 2.922,0.6682 2.921,0.6682 2.921,0.6682 2.92,0.6682 Z M 5.204,0.2614 C 5.203,0.2501 5.2,0.2162 5.192,0.2162 5.197,0.2049 5.2,0.2162 5.205,0.2162 5.194,0.2275 5.204,0.2501 5.204,0.2614 Z M 6.23,1.821 C 6.231,1.821 6.232,1.821 6.235,1.821 6.232,1.821 6.231,1.821 6.23,1.821 Z M 6.639,1.776 6.639,1.776 C 6.634,1.776 6.631,1.776 6.627,1.776 6.631,1.764 6.636,1.776 6.639,1.764 6.639,1.764 6.639,1.764 6.639,1.776 Z M 6.731,2.126 C 6.74,2.126 6.742,2.137 6.748,2.137 6.74,2.137 6.732,2.137 6.724,2.137 6.728,2.137 6.726,2.126 6.731,2.126 Z M 6.686,1.843 C 6.686,1.843 6.687,1.843 6.686,1.855 6.686,1.843 6.686,1.843 6.684,1.843 6.686,1.843 6.686,1.843 6.686,1.843 Z M 6.766,2.013 C 6.763,2.013 6.762,2.013 6.76,2.013 6.76,2.013 6.76,2.013 6.76,2.002 6.763,2.013 6.763,2.013 6.766,2.013 Z M 6.612,1.866 C 6.614,1.866 6.614,1.855 6.614,1.855 6.619,1.855 6.629,1.855 6.637,1.855 6.629,1.855 6.619,1.855 6.612,1.866 Z M 6.571,2.476 C 6.569,2.487 6.572,2.487 6.573,2.487 6.573,2.487 6.573,2.487 6.573,2.487 6.574,2.487 6.569,2.487 6.571,2.476 Z M 6.511,2.736 6.511,2.736 6.512,2.736 6.511,2.736 C 6.511,2.736 6.511,2.736 6.511,2.736 Z M 3.636,3.651 C 3.637,3.651 3.637,3.651 3.638,3.651 3.637,3.651 3.636,3.651 3.636,3.651 3.634,3.651 3.637,3.651 3.636,3.651 Z M 2.394,3.595 C 2.389,3.606 2.384,3.606 2.376,3.617 2.384,3.606 2.389,3.606 2.394,3.595 Z M 2.34,3.527 C 2.34,3.527 2.346,3.538 2.343,3.538 2.34,3.538 2.337,3.527 2.333,3.516 2.335,3.516 2.338,3.527 2.34,3.527 Z M 1.986,3.437 C 1.982,3.448 1.981,3.471 1.974,3.459 1.973,3.459 1.97,3.459 1.968,3.459 1.978,3.459 1.983,3.448 1.986,3.437 Z M 1.28,2.736 C 1.278,2.736 1.277,2.736 1.277,2.736 L 1.28,2.736 1.28,2.736 Z M 1.35,2.431 C 1.357,2.442 1.363,2.431 1.371,2.431 1.361,2.442 1.35,2.442 1.344,2.454 1.345,2.442 1.347,2.442 1.35,2.431 Z M 1.341,2.216 C 1.332,2.216 1.327,2.228 1.32,2.228 1.32,2.228 1.32,2.228 1.319,2.228 1.327,2.228 1.334,2.216 1.338,2.205 1.34,2.205 1.339,2.205 1.341,2.216 Z M 1.892,1.719 C 1.892,1.719 1.892,1.719 1.892,1.719 1.892,1.719 1.892,1.719 1.891,1.719 L 1.889,1.719 C 1.891,1.719 1.892,1.719 1.892,1.719 Z M 1.479,1.516 C 1.477,1.516 1.473,1.516 1.473,1.516 1.468,1.504 1.464,1.516 1.459,1.504 1.464,1.516 1.472,1.516 1.479,1.516 Z M 1.261,1.211 1.26,1.211 C 1.254,1.211 1.245,1.199 1.236,1.199 1.237,1.199 1.237,1.199 1.237,1.199 1.245,1.211 1.252,1.211 1.261,1.211 Z M 3.331,0.7247 3.331,0.7247 C 3.323,0.7247 3.316,0.736 3.311,0.736 3.311,0.736 3.31,0.736 3.31,0.736 3.316,0.736 3.321,0.736 3.328,0.7247 3.328,0.7247 3.33,0.7247 3.331,0.7247 Z M 4.364,0.4535 C 4.361,0.4422 4.359,0.4422 4.356,0.4422 4.362,0.4422 4.369,0.4422 4.374,0.4309 4.371,0.4422 4.366,0.4422 4.364,0.4535 Z M 6.015,1.482 C 6.025,1.493 6.036,1.493 6.045,1.504 6.035,1.493 6.025,1.493 6.015,1.482 Z M 6.464,2.68 C 6.463,2.68 6.461,2.691 6.461,2.691 6.461,2.691 6.462,2.68 6.461,2.68 6.461,2.68 6.464,2.68 6.464,2.68 Z M 5.905,2.917 5.904,2.906 C 5.905,2.906 5.905,2.917 5.905,2.917 5.906,2.917 5.908,2.917 5.909,2.917 5.899,2.939 5.904,2.962 5.928,2.985 5.926,2.985 5.924,2.985 5.921,2.985 5.916,2.962 5.911,2.939 5.905,2.917 Z M 5.512,3.346 C 5.512,3.346 5.512,3.346 5.513,3.346 5.513,3.346 5.513,3.346 5.513,3.346 5.513,3.346 5.513,3.346 5.512,3.346 Z M 5.413,3.324 C 5.413,3.335 5.408,3.335 5.408,3.335 5.407,3.335 5.405,3.335 5.405,3.335 5.408,3.335 5.41,3.324 5.413,3.324 Z M 4.655,3.504 C 4.656,3.504 4.658,3.504 4.661,3.504 4.661,3.504 4.66,3.504 4.66,3.516 4.658,3.516 4.656,3.504 4.655,3.504 Z M 4.082,3.617 C 4.079,3.629 4.085,3.64 4.087,3.651 4.079,3.64 4.07,3.64 4.059,3.64 4.067,3.629 4.074,3.629 4.082,3.617 Z M 3.83,3.651 C 3.828,3.651 3.828,3.663 3.827,3.663 3.825,3.663 3.828,3.651 3.827,3.651 3.828,3.651 3.829,3.651 3.83,3.651 Z M 2.739,3.617 C 2.751,3.617 2.769,3.629 2.761,3.651 2.754,3.64 2.746,3.629 2.735,3.617 2.736,3.617 2.736,3.617 2.739,3.617 Z M 2.749,3.245 C 2.75,3.245 2.752,3.245 2.754,3.233 2.754,3.245 2.752,3.245 2.752,3.245 2.751,3.245 2.749,3.245 2.749,3.245 L 2.749,3.245 C 2.746,3.245 2.744,3.245 2.741,3.245 2.745,3.233 2.744,3.245 2.749,3.245 Z M 2.61,3.482 C 2.611,3.482 2.611,3.482 2.613,3.482 2.611,3.482 2.61,3.482 2.61,3.482 L 2.61,3.482 Z M 2.505,3.629 C 2.504,3.64 2.504,3.64 2.504,3.64 2.5,3.629 2.496,3.617 2.494,3.617 2.498,3.617 2.501,3.629 2.505,3.629 Z M 1.31,2.42 C 1.32,2.42 1.327,2.408 1.338,2.408 1.342,2.408 1.345,2.408 1.349,2.408 1.335,2.408 1.32,2.408 1.31,2.42 Z M 1.309,1.244 C 1.31,1.244 1.31,1.244 1.31,1.244 1.31,1.244 1.31,1.244 1.31,1.244 L 1.307,1.244 C 1.307,1.244 1.307,1.244 1.307,1.244 L 1.309,1.244 Z M 1.905,1.12 1.903,1.12 C 1.903,1.12 1.903,1.12 1.902,1.12 1.903,1.12 1.903,1.12 1.905,1.12 Z M 2.31,1.357 C 2.31,1.357 2.31,1.357 2.31,1.357 L 2.308,1.357 2.31,1.357 Z M 2.408,1.357 C 2.407,1.357 2.411,1.357 2.411,1.369 2.409,1.357 2.408,1.357 2.404,1.357 2.407,1.357 2.407,1.357 2.408,1.357 Z M 4.751,0.7247 C 4.772,0.7134 4.796,0.7021 4.821,0.6908 4.795,0.7021 4.77,0.7021 4.751,0.7247 Z M 5.222,0.4987 C 5.225,0.4987 5.228,0.4987 5.233,0.4987 5.233,0.4987 5.236,0.4987 5.236,0.51 5.233,0.4987 5.225,0.51 5.222,0.4987 Z M 5.639,1.38 C 5.639,1.38 5.639,1.369 5.639,1.369 5.641,1.369 5.641,1.369 5.644,1.369 5.64,1.38 5.641,1.38 5.639,1.38 Z M 6.224,2.013 C 6.224,2.013 6.226,2.024 6.225,2.024 6.222,2.024 6.221,2.013 6.219,2.024 6.221,2.013 6.222,2.013 6.224,2.013 Z M 6.496,1.911 6.496,1.911 C 6.498,1.911 6.498,1.911 6.498,1.911 6.498,1.911 6.497,1.911 6.496,1.911 6.496,1.911 6.496,1.911 6.496,1.911 Z M 3.784,3.019 C 3.787,3.03 3.789,3.03 3.792,3.041 3.787,3.03 3.78,3.03 3.775,3.041 3.779,3.03 3.782,3.019 3.784,3.019 Z M 3.212,3.561 C 3.213,3.561 3.215,3.561 3.215,3.561 3.213,3.561 3.212,3.561 3.209,3.561 3.212,3.561 3.209,3.561 3.212,3.561 Z M 2.754,3.595 C 2.749,3.595 2.744,3.595 2.738,3.606 2.741,3.595 2.734,3.595 2.736,3.595 2.74,3.595 2.749,3.595 2.754,3.595 Z M 2.789,3.358 C 2.789,3.358 2.79,3.358 2.79,3.358 2.79,3.369 2.789,3.369 2.787,3.369 2.789,3.358 2.789,3.358 2.789,3.358 Z M 2.164,2.883 2.164,2.883 C 2.164,2.883 2.164,2.883 2.164,2.883 2.164,2.883 2.164,2.883 2.164,2.883 Z M 1.892,2.906 C 1.891,2.906 1.892,2.906 1.891,2.906 1.892,2.906 1.894,2.906 1.894,2.906 1.894,2.906 1.892,2.906 1.892,2.906 Z M 1.736,2.872 C 1.733,2.872 1.732,2.86 1.728,2.86 1.73,2.86 1.731,2.86 1.732,2.86 1.732,2.86 1.736,2.872 1.736,2.872 Z M 1.505,2.465 C 1.502,2.465 1.5,2.465 1.495,2.465 1.5,2.465 1.502,2.465 1.505,2.465 Z M 1.828,1.595 C 1.827,1.583 1.827,1.583 1.827,1.583 1.827,1.561 1.817,1.572 1.812,1.572 1.812,1.572 1.812,1.572 1.812,1.572 1.814,1.572 1.817,1.572 1.82,1.572 1.822,1.572 1.824,1.572 1.827,1.583 1.829,1.583 1.828,1.583 1.831,1.583 1.829,1.583 1.829,1.595 1.828,1.595 Z M 1.811,1.64 1.811,1.64 C 1.809,1.64 1.809,1.651 1.807,1.651 1.809,1.651 1.809,1.64 1.811,1.64 Z M 2.404,1.504 C 2.404,1.504 2.404,1.504 2.404,1.504 L 2.404,1.504 Z M 3.187,0.849 C 3.186,0.849 3.192,0.8603 3.187,0.8603 3.182,0.8603 3.184,0.8603 3.181,0.849 3.182,0.849 3.185,0.849 3.187,0.849 Z M 4.108,0.6343 C 4.108,0.6343 4.108,0.6343 4.108,0.6343 4.108,0.6343 4.108,0.6343 4.106,0.6343 4.108,0.6343 4.108,0.6343 4.108,0.6343 Z M 4.126,0.6004 4.125,0.6004 C 4.125,0.6004 4.126,0.6004 4.128,0.6004 4.128,0.6004 4.128,0.6004 4.126,0.6004 Z M 4.515,0.5552 4.515,0.5552 C 4.515,0.5552 4.515,0.5552 4.516,0.5552 4.515,0.5552 4.515,0.5552 4.515,0.5552 Z M 4.732,0.8829 C 4.732,0.8829 4.732,0.8829 4.732,0.8716 4.732,0.8829 4.733,0.8829 4.733,0.8829 L 4.732,0.8829 Z M 5.217,1.098 5.217,1.098 C 5.218,1.098 5.218,1.098 5.218,1.098 5.218,1.098 5.218,1.098 5.217,1.098 Z M 5.314,1.324 C 5.312,1.324 5.312,1.324 5.31,1.324 5.312,1.324 5.312,1.324 5.312,1.324 5.312,1.324 5.314,1.324 5.314,1.324 Z M 5.5,1.312 C 5.499,1.312 5.503,1.312 5.5,1.312 5.503,1.312 5.503,1.312 5.504,1.312 5.503,1.312 5.502,1.312 5.5,1.312 Z M 5.73,1.47 C 5.734,1.47 5.735,1.459 5.735,1.459 5.735,1.459 5.735,1.47 5.73,1.47 Z M 6.428,2.476 C 6.431,2.476 6.431,2.476 6.433,2.476 6.431,2.476 6.431,2.476 6.428,2.476 Z M 6.365,2.499 C 6.37,2.521 6.377,2.533 6.382,2.544 6.376,2.533 6.37,2.51 6.357,2.499 6.36,2.499 6.363,2.499 6.365,2.499 Z M 4.848,2.646 C 4.851,2.634 4.848,2.623 4.843,2.612 4.851,2.612 4.858,2.623 4.862,2.623 4.861,2.634 4.853,2.634 4.848,2.646 Z M 4.665,3.086 C 4.667,3.098 4.673,3.098 4.675,3.098 4.67,3.098 4.67,3.098 4.665,3.098 4.665,3.086 4.666,3.086 4.665,3.086 Z M 4.479,3.075 C 4.481,3.075 4.487,3.075 4.488,3.075 4.485,3.075 4.483,3.075 4.479,3.075 Z M 3.759,2.951 C 3.759,2.951 3.759,2.951 3.759,2.951 3.759,2.951 3.757,2.951 3.755,2.951 3.757,2.951 3.758,2.951 3.759,2.951 Z M 3.667,2.962 C 3.668,2.962 3.669,2.951 3.671,2.951 3.669,2.951 3.668,2.962 3.667,2.962 Z M 3.621,3.188 C 3.626,3.199 3.618,3.199 3.621,3.211 3.618,3.199 3.619,3.199 3.616,3.199 3.618,3.199 3.618,3.188 3.621,3.188 Z M 3.512,3.369 C 3.512,3.369 3.512,3.369 3.514,3.369 3.514,3.369 3.514,3.369 3.514,3.369 3.512,3.369 3.512,3.369 3.512,3.369 Z M 3.266,3.29 C 3.27,3.278 3.27,3.278 3.276,3.278 3.277,3.278 3.276,3.278 3.278,3.278 L 3.279,3.278 C 3.281,3.278 3.281,3.29 3.281,3.29 3.279,3.29 3.279,3.278 3.278,3.278 3.273,3.278 3.27,3.29 3.266,3.29 Z M 2.978,3.595 C 2.978,3.595 2.978,3.606 2.977,3.606 2.976,3.606 2.978,3.595 2.977,3.595 2.978,3.595 2.978,3.595 2.978,3.595 Z M 1.995,2.25 C 1.983,2.239 1.968,2.239 1.95,2.239 1.967,2.239 1.981,2.239 1.995,2.25 Z M 1.514,1.979 1.514,1.979 1.513,1.979 C 1.513,1.979 1.512,1.979 1.512,1.979 1.513,1.979 1.514,1.979 1.514,1.979 Z M 1.998,1.629 1.998,1.629 C 1.998,1.629 1.999,1.629 1.999,1.629 1.999,1.629 1.999,1.629 1.998,1.629 Z M 2.147,1.651 2.147,1.651 C 2.144,1.663 2.142,1.663 2.139,1.663 2.138,1.663 2.138,1.663 2.138,1.663 2.14,1.663 2.144,1.663 2.147,1.651 Z M 2.154,1.753 2.154,1.753 C 2.152,1.753 2.148,1.742 2.144,1.742 2.143,1.742 2.142,1.742 2.139,1.742 2.139,1.73 2.139,1.742 2.139,1.73 2.142,1.742 2.144,1.742 2.144,1.742 2.149,1.742 2.152,1.753 2.156,1.753 2.154,1.753 2.154,1.753 2.154,1.753 Z M 2.575,1.403 C 2.57,1.403 2.564,1.403 2.557,1.403 2.557,1.403 2.559,1.403 2.56,1.403 2.565,1.403 2.57,1.403 2.575,1.403 Z M 2.59,1.369 2.591,1.369 C 2.61,1.357 2.615,1.312 2.64,1.324 2.644,1.324 2.645,1.312 2.648,1.312 2.625,1.324 2.598,1.335 2.593,1.369 2.584,1.391 2.598,1.391 2.609,1.403 2.608,1.403 2.608,1.403 2.608,1.403 2.615,1.425 2.631,1.437 2.655,1.437 2.655,1.437 2.655,1.437 2.655,1.437 2.669,1.448 2.686,1.437 2.687,1.448 2.686,1.448 2.671,1.448 2.659,1.437 2.659,1.437 2.659,1.437 2.658,1.437 2.658,1.437 2.658,1.437 2.659,1.437 2.656,1.437 2.656,1.437 2.655,1.437 2.64,1.425 2.622,1.414 2.605,1.403 2.606,1.403 2.606,1.403 2.608,1.403 2.602,1.391 2.598,1.38 2.591,1.369 2.59,1.369 2.59,1.369 2.59,1.369 2.59,1.369 2.59,1.369 2.59,1.369 Z M 3.448,0.8603 C 3.443,0.8603 3.438,0.8716 3.432,0.8716 3.437,0.8716 3.439,0.8603 3.442,0.8603 3.444,0.8603 3.447,0.8603 3.448,0.8603 Z M 4.824,1.064 C 4.826,1.064 4.823,1.064 4.823,1.064 4.823,1.064 4.823,1.064 4.823,1.064 4.823,1.064 4.824,1.064 4.824,1.064 Z M 4.821,1.256 C 4.817,1.244 4.818,1.244 4.817,1.244 4.821,1.244 4.823,1.244 4.827,1.244 4.823,1.244 4.823,1.244 4.821,1.256 Z M 6.102,2.295 C 6.101,2.307 6.102,2.307 6.101,2.307 6.101,2.307 6.098,2.307 6.095,2.307 6.098,2.307 6.1,2.307 6.102,2.295 Z M 5.654,2.872 C 5.657,2.872 5.649,2.86 5.654,2.86 5.657,2.86 5.657,2.86 5.659,2.86 5.657,2.872 5.655,2.872 5.654,2.872 Z M 4.951,2.239 C 4.954,2.239 4.959,2.239 4.962,2.239 4.959,2.239 4.954,2.239 4.951,2.25 4.951,2.239 4.951,2.239 4.951,2.239 Z M 4.936,2.013 C 4.936,2.013 4.936,2.024 4.936,2.024 4.934,2.024 4.936,2.013 4.936,2.013 Z M 3.525,3.256 C 3.519,3.267 3.516,3.278 3.514,3.29 3.512,3.278 3.519,3.267 3.525,3.256 Z M 2.508,3.245 C 2.508,3.245 2.505,3.245 2.504,3.245 2.504,3.245 2.504,3.245 2.503,3.245 2.504,3.245 2.505,3.245 2.508,3.245 Z M 2.295,2.86 C 2.295,2.86 2.295,2.86 2.297,2.849 2.298,2.86 2.298,2.86 2.298,2.86 L 2.295,2.86 Z M 2.029,2.16 C 2.028,2.16 2.028,2.16 2.028,2.16 2.027,2.16 2.028,2.16 2.027,2.16 2.028,2.16 2.028,2.16 2.029,2.16 Z M 2.78,1.086 C 2.78,1.086 2.779,1.086 2.779,1.086 2.78,1.086 2.781,1.086 2.781,1.086 2.781,1.086 2.78,1.086 2.78,1.086 Z M 2.919,1.437 C 2.915,1.448 2.913,1.448 2.909,1.459 2.91,1.448 2.906,1.448 2.905,1.437 2.91,1.437 2.915,1.437 2.919,1.437 Z M 3.074,1.211 3.074,1.211 3.075,1.211 C 3.074,1.211 3.074,1.211 3.074,1.211 3.074,1.211 3.072,1.211 3.072,1.211 3.048,1.222 3.039,1.256 3.006,1.256 3.031,1.244 3.061,1.244 3.074,1.211 Z M 3.576,0.8603 C 3.583,0.8603 3.59,0.8716 3.59,0.8829 3.59,0.8716 3.583,0.8603 3.576,0.8603 Z M 3.636,0.8829 C 3.642,0.8716 3.648,0.8603 3.662,0.8603 3.65,0.8716 3.643,0.8716 3.636,0.8829 Z M 4.646,1.018 C 4.646,1.018 4.646,1.007 4.641,1.007 4.646,1.007 4.65,0.9959 4.654,1.007 4.662,1.007 4.651,1.018 4.646,1.018 Z M 4.936,1.55 C 4.937,1.561 4.94,1.572 4.943,1.572 4.938,1.572 4.936,1.561 4.936,1.55 Z M 5.203,1.843 C 5.211,1.832 5.203,1.821 5.2,1.809 5.203,1.821 5.205,1.832 5.203,1.843 Z M 5.306,1.674 5.306,1.674 C 5.304,1.674 5.302,1.674 5.299,1.674 5.299,1.674 5.298,1.674 5.297,1.663 5.279,1.651 5.265,1.663 5.252,1.674 5.25,1.674 5.249,1.674 5.249,1.663 5.25,1.663 5.253,1.663 5.254,1.663 5.268,1.663 5.282,1.663 5.295,1.663 L 5.297,1.663 C 5.299,1.674 5.302,1.674 5.306,1.674 Z M 5.511,1.493 C 5.511,1.493 5.511,1.504 5.507,1.493 5.507,1.493 5.505,1.493 5.504,1.493 5.505,1.493 5.509,1.493 5.511,1.493 Z M 5.99,2.329 C 5.987,2.329 5.986,2.329 5.985,2.329 5.987,2.329 5.99,2.329 5.992,2.329 5.991,2.329 5.99,2.329 5.99,2.329 Z M 6.04,2.408 C 6.042,2.408 6.04,2.408 6.04,2.397 6.042,2.408 6.043,2.408 6.045,2.408 6.042,2.408 6.043,2.408 6.04,2.408 Z M 5.949,2.544 C 5.95,2.544 5.951,2.544 5.951,2.544 5.951,2.544 5.95,2.544 5.949,2.544 L 5.949,2.544 Z M 5.911,2.713 C 5.911,2.713 5.911,2.713 5.911,2.725 5.909,2.713 5.906,2.725 5.904,2.713 5.909,2.713 5.906,2.713 5.911,2.713 Z M 5.543,3.052 C 5.541,3.064 5.534,3.064 5.534,3.075 5.534,3.075 5.532,3.075 5.53,3.075 5.532,3.064 5.539,3.064 5.543,3.052 Z M 3.216,3.132 C 3.216,3.132 3.218,3.132 3.218,3.132 3.217,3.132 3.217,3.132 3.215,3.132 3.216,3.132 3.215,3.132 3.216,3.132 Z M 2.123,2.476 2.122,2.476 2.123,2.476 Z M 3.079,1.211 3.079,1.211 C 3.079,1.211 3.077,1.211 3.076,1.211 3.079,1.211 3.077,1.211 3.079,1.211 Z M 3.142,1.177 C 3.142,1.188 3.135,1.188 3.135,1.188 3.136,1.177 3.142,1.177 3.142,1.165 3.142,1.177 3.141,1.177 3.142,1.177 Z M 3.504,1.29 C 3.518,1.256 3.502,1.244 3.495,1.222 3.498,1.256 3.507,1.278 3.523,1.301 3.516,1.301 3.512,1.29 3.504,1.29 Z M 3.613,1.335 C 3.612,1.335 3.612,1.346 3.61,1.346 3.61,1.346 3.61,1.346 3.609,1.346 3.61,1.346 3.61,1.335 3.613,1.335 Z M 3.592,0.9168 C 3.592,0.9168 3.592,0.9168 3.593,0.9168 3.589,0.9168 3.585,0.9168 3.585,0.9281 3.585,0.9168 3.588,0.9168 3.592,0.9168 Z M 3.92,0.7586 3.918,0.7586 C 3.919,0.7586 3.919,0.7586 3.92,0.7586 Z M 4.224,0.8377 4.225,0.8377 C 4.223,0.8377 4.223,0.8377 4.22,0.8377 4.219,0.8377 4.217,0.8377 4.216,0.8377 4.219,0.8377 4.221,0.8377 4.224,0.8377 Z M 4.452,1.448 C 4.459,1.448 4.465,1.448 4.472,1.448 4.465,1.448 4.459,1.448 4.452,1.448 Z M 4.586,1.154 C 4.586,1.154 4.589,1.154 4.587,1.154 4.586,1.154 4.586,1.154 4.586,1.154 4.586,1.154 4.586,1.154 4.586,1.154 Z M 3.404,2.849 3.404,2.849 C 3.404,2.849 3.411,2.849 3.409,2.86 3.409,2.86 3.409,2.86 3.407,2.872 L 3.404,2.872 C 3.407,2.86 3.404,2.86 3.404,2.849 Z M 2.34,2.533 C 2.339,2.533 2.338,2.533 2.335,2.533 2.337,2.533 2.338,2.533 2.338,2.533 2.339,2.533 2.34,2.533 2.34,2.533 Z M 2.159,2.476 C 2.157,2.476 2.156,2.476 2.154,2.476 L 2.154,2.476 C 2.152,2.476 2.153,2.476 2.152,2.465 2.154,2.465 2.153,2.476 2.157,2.476 2.156,2.476 2.154,2.476 2.154,2.476 2.157,2.476 2.157,2.476 2.159,2.476 Z M 3.062,1.719 3.06,1.719 C 3.061,1.719 3.062,1.708 3.063,1.708 3.063,1.708 3.062,1.708 3.062,1.719 Z M 3.372,1.346 C 3.354,1.335 3.371,1.312 3.379,1.301 3.377,1.335 3.384,1.357 3.4,1.369 3.391,1.357 3.382,1.357 3.372,1.346 Z M 3.57,1.47 3.572,1.459 C 3.572,1.47 3.573,1.47 3.573,1.47 3.573,1.47 3.57,1.47 3.57,1.47 Z M 3.606,1.538 3.606,1.538 C 3.607,1.538 3.607,1.538 3.608,1.538 3.607,1.538 3.607,1.538 3.606,1.538 Z M 4.745,1.685 C 4.745,1.685 4.745,1.685 4.745,1.685 4.745,1.685 4.745,1.685 4.745,1.685 Z M 4.735,1.561 C 4.735,1.561 4.735,1.561 4.735,1.561 L 4.735,1.561 Z M 3.471,2.759 C 3.475,2.77 3.475,2.77 3.475,2.77 3.472,2.77 3.469,2.77 3.467,2.77 3.469,2.77 3.468,2.77 3.471,2.759 Z M 3.331,2.612 C 3.331,2.612 3.328,2.6 3.328,2.6 3.333,2.6 3.336,2.6 3.331,2.612 Z M 2.956,2.16 C 2.962,2.148 2.97,2.148 2.974,2.148 2.978,2.16 2.985,2.148 2.99,2.16 2.978,2.16 2.969,2.148 2.956,2.16 Z M 3.206,1.561 C 3.205,1.561 3.205,1.561 3.202,1.572 3.205,1.572 3.205,1.561 3.206,1.561 Z M 4.256,1.493 C 4.255,1.493 4.255,1.493 4.254,1.493 4.255,1.493 4.256,1.493 4.256,1.493 4.256,1.493 4.256,1.493 4.256,1.493 Z M 4.244,2.329 C 4.244,2.329 4.244,2.329 4.244,2.329 4.242,2.329 4.238,2.329 4.236,2.329 4.238,2.329 4.241,2.329 4.244,2.329 Z M 3.123,2.804 C 3.124,2.804 3.123,2.804 3.123,2.804 3.122,2.804 3.121,2.804 3.12,2.804 3.12,2.804 3.122,2.804 3.123,2.804 Z M 2.95,2.16 2.949,2.16 C 2.951,2.16 2.951,2.16 2.951,2.16 2.951,2.16 2.951,2.16 2.951,2.16 2.951,2.16 2.951,2.16 2.952,2.16 2.951,2.16 2.951,2.16 2.95,2.16 Z M 3.092,1.776 3.092,1.776 C 3.092,1.776 3.092,1.776 3.093,1.776 3.092,1.776 3.092,1.776 3.092,1.776 Z M 3.453,2.024 C 3.452,2.024 3.449,2.024 3.447,2.024 3.451,2.024 3.453,2.024 3.456,2.024 3.455,2.024 3.455,2.024 3.453,2.024 Z M 3.85,1.64 C 3.85,1.64 3.85,1.64 3.85,1.64 3.85,1.64 3.852,1.64 3.85,1.64 Z M 3.742,2.013 C 3.74,2.013 3.74,2.013 3.738,2.024 3.732,2.024 3.732,2.013 3.729,2.013 3.734,2.013 3.737,2.013 3.742,2.013 Z M 3.786,1.753 C 3.784,1.764 3.787,1.764 3.784,1.764 3.784,1.764 3.783,1.764 3.782,1.764 3.783,1.764 3.784,1.753 3.786,1.753 Z M 3.764,1.73 C 3.767,1.73 3.764,1.742 3.764,1.742 3.764,1.742 3.764,1.742 3.763,1.73 3.764,1.742 3.763,1.73 3.764,1.73 Z M 3.847,1.493 C 3.848,1.482 3.849,1.493 3.85,1.493 3.849,1.493 3.848,1.493 3.848,1.493 3.848,1.493 3.845,1.493 3.847,1.493 Z M 3.343,2.013 C 3.343,2.013 3.343,2.013 3.343,2.013 L 3.342,2.013 3.343,2.013 Z M 3.392,1.945 3.392,1.945 C 3.399,1.945 3.396,1.934 3.404,1.934 3.404,1.945 3.395,1.945 3.395,1.945 3.393,1.945 3.391,1.945 3.389,1.956 3.389,1.945 3.392,1.945 3.392,1.945 Z M 3.212,2.793 C 3.213,2.804 3.215,2.804 3.217,2.804 3.212,2.804 3.215,2.804 3.212,2.804 3.212,2.804 3.212,2.804 3.212,2.793 Z M 3.155,2.713 C 3.166,2.713 3.152,2.713 3.155,2.713 3.16,2.713 3.166,2.713 3.167,2.725 3.162,2.713 3.16,2.725 3.157,2.725 3.157,2.725 3.155,2.725 3.155,2.713 Z M 3.122,2.035 C 3.117,2.035 3.109,2.035 3.104,2.035 3.109,2.035 3.116,2.035 3.122,2.035 Z M 2.897,2.239 C 2.897,2.239 2.897,2.239 2.897,2.239 2.897,2.239 2.897,2.239 2.897,2.239 Z M 2.72,2.374 C 2.721,2.374 2.72,2.386 2.721,2.386 2.719,2.386 2.718,2.386 2.715,2.386 2.716,2.386 2.719,2.386 2.72,2.374 Z M 2.815,1.956 C 2.819,1.956 2.822,1.956 2.825,1.956 2.824,1.956 2.821,1.956 2.82,1.956 2.817,1.956 2.816,1.956 2.815,1.956 Z M 2.764,2.013 C 2.764,2.013 2.764,2.013 2.764,2.013 2.765,2.013 2.764,2.013 2.764,2.013 2.765,2.013 2.766,2.024 2.766,2.024 2.764,2.013 2.761,2.013 2.759,2.013 2.759,2.013 2.758,2.002 2.758,2.002 2.758,2.002 2.759,2.002 2.759,2.002 2.761,2.002 2.756,2.013 2.764,2.013 Z M 2.63,2.115 C 2.638,2.115 2.637,2.103 2.642,2.103 2.639,2.103 2.64,2.115 2.638,2.115 2.635,2.115 2.635,2.126 2.63,2.115 Z M 4.25,1.674 C 4.249,1.663 4.244,1.663 4.246,1.663 4.251,1.663 4.256,1.663 4.261,1.663 4.256,1.663 4.254,1.663 4.25,1.674 Z M 4.564,2.092 C 4.558,2.081 4.556,2.081 4.553,2.069 4.551,2.069 4.549,2.058 4.544,2.058 4.549,2.058 4.551,2.069 4.553,2.069 4.556,2.081 4.558,2.081 4.564,2.092 Z M 4.425,2.047 C 4.434,2.047 4.44,2.035 4.448,2.024 4.443,2.035 4.435,2.047 4.425,2.047 Z M 4.287,2.182 C 4.289,2.182 4.289,2.194 4.289,2.194 4.286,2.194 4.286,2.182 4.284,2.182 4.285,2.182 4.286,2.182 4.287,2.182 Z M 4.397,2.081 C 4.395,2.081 4.395,2.081 4.392,2.081 4.394,2.081 4.392,2.081 4.395,2.081 4.395,2.081 4.395,2.081 4.397,2.081 Z M 4.366,2.148 C 4.366,2.148 4.367,2.148 4.367,2.148 4.369,2.148 4.369,2.148 4.369,2.16 4.367,2.16 4.369,2.148 4.366,2.148 Z M 4.439,2.228 C 4.44,2.228 4.44,2.228 4.44,2.239 4.425,2.228 4.417,2.239 4.408,2.25 4.416,2.239 4.427,2.239 4.439,2.228 Z M 4.457,1.538 4.457,1.538 C 4.457,1.538 4.457,1.538 4.457,1.538 Z M 2.371,2.713 C 2.369,2.713 2.369,2.713 2.367,2.702 2.368,2.702 2.369,2.713 2.371,2.713 2.371,2.713 2.371,2.713 2.371,2.713 Z M 3.325,3.041 C 3.325,3.041 3.325,3.041 3.323,3.052 3.325,3.041 3.325,3.041 3.325,3.041 Z M 5.654,2.103 5.654,2.103 C 5.654,2.103 5.654,2.103 5.655,2.103 5.654,2.103 5.654,2.103 5.654,2.103 Z M 5.274,1.968 C 5.279,1.968 5.278,1.956 5.274,1.945 5.286,1.956 5.284,1.968 5.274,1.968 Z M 3.06,1.154 C 3.059,1.154 3.055,1.165 3.055,1.165 3.055,1.165 3.056,1.154 3.056,1.154 3.061,1.154 3.07,1.143 3.077,1.143 3.074,1.154 3.063,1.154 3.061,1.154 3.059,1.154 3.061,1.154 3.06,1.154 Z M 2.431,2.872 C 2.434,2.872 2.438,2.872 2.441,2.872 2.439,2.872 2.435,2.883 2.434,2.883 2.432,2.883 2.43,2.872 2.431,2.872 Z M 3.5,3.312 C 3.5,3.312 3.496,3.312 3.497,3.312 3.497,3.312 3.5,3.312 3.5,3.312 Z M 6.168,2.092 C 6.168,2.092 6.168,2.092 6.168,2.081 6.168,2.081 6.17,2.081 6.171,2.081 6.17,2.092 6.168,2.092 6.168,2.092 Z M 5.795,1.742 C 5.785,1.742 5.778,1.742 5.769,1.742 5.772,1.742 5.778,1.73 5.779,1.73 5.784,1.73 5.79,1.742 5.795,1.742 Z M 5.197,1.357 C 5.2,1.357 5.205,1.357 5.211,1.357 5.205,1.369 5.203,1.369 5.2,1.369 5.2,1.369 5.193,1.369 5.197,1.357 Z M 5.185,1.38 C 5.185,1.38 5.185,1.38 5.185,1.38 5.185,1.38 5.185,1.38 5.185,1.38 5.188,1.391 5.196,1.391 5.192,1.391 5.191,1.391 5.187,1.391 5.185,1.391 5.185,1.38 5.185,1.391 5.185,1.38 L 5.185,1.38 C 5.184,1.38 5.185,1.38 5.185,1.38 Z M 4.503,0.6569 C 4.504,0.6569 4.508,0.6682 4.505,0.6682 4.505,0.6682 4.504,0.6682 4.503,0.6569 4.503,0.6569 4.503,0.6569 4.503,0.6569 Z M 2.655,1.391 C 2.658,1.38 2.659,1.369 2.665,1.369 2.66,1.38 2.658,1.38 2.655,1.391 Z M 5.112,2.973 C 5.112,2.985 5.113,2.985 5.114,2.985 5.113,2.985 5.113,2.985 5.113,2.985 5.113,2.985 5.111,2.985 5.112,2.973 Z M 5.976,2.736 C 5.975,2.736 5.975,2.736 5.975,2.736 5.975,2.736 5.975,2.736 5.976,2.736 L 5.976,2.736 Z M 4.667,0.6908 C 4.668,0.6908 4.67,0.6908 4.67,0.6908 4.67,0.6908 4.67,0.6908 4.67,0.6908 4.67,0.6908 4.668,0.6908 4.667,0.6908 Z M 2.461,1.12 C 2.461,1.12 2.461,1.12 2.461,1.12 2.461,1.12 2.461,1.12 2.461,1.12 L 2.461,1.12 Z M 2.142,2.793 2.138,2.793 C 2.138,2.793 2.139,2.793 2.139,2.793 2.14,2.793 2.139,2.793 2.14,2.793 2.169,2.77 2.198,2.747 2.223,2.713 2.187,2.725 2.156,2.747 2.142,2.793 Z M 4.346,3.437 C 4.341,3.425 4.338,3.437 4.331,3.437 4.339,3.425 4.339,3.425 4.34,3.425 4.342,3.425 4.344,3.425 4.346,3.437 Z M 1.508,2.747 1.508,2.747 C 1.507,2.747 1.507,2.747 1.506,2.747 1.507,2.747 1.507,2.747 1.508,2.747 Z M 2.635,3.504 C 2.635,3.504 2.635,3.504 2.635,3.504 2.635,3.504 2.635,3.504 2.635,3.504 Z M 4.618,3.561 4.621,3.561 C 4.621,3.561 4.622,3.561 4.622,3.561 4.621,3.561 4.62,3.561 4.618,3.561 Z M 5.92,1.301 C 5.917,1.301 5.916,1.301 5.914,1.301 5.916,1.301 5.919,1.301 5.92,1.29 5.92,1.301 5.92,1.301 5.92,1.301 Z M 5.828,1.312 C 5.82,1.312 5.816,1.324 5.811,1.324 5.812,1.324 5.81,1.324 5.812,1.312 5.819,1.312 5.822,1.312 5.828,1.312 Z M 2.248,1.357 C 2.255,1.369 2.263,1.38 2.27,1.38 2.265,1.38 2.255,1.391 2.246,1.391 2.242,1.38 2.238,1.369 2.248,1.357 Z M 1.943,1.109 C 1.946,1.109 1.948,1.098 1.949,1.098 1.946,1.098 1.944,1.109 1.943,1.12 1.943,1.109 1.941,1.098 1.938,1.098 1.941,1.098 1.942,1.109 1.943,1.109 Z M 1.876,3.391 C 1.878,3.391 1.878,3.391 1.88,3.391 1.88,3.391 1.878,3.391 1.877,3.391 1.877,3.391 1.876,3.391 1.876,3.391 Z M 6.498,2.736 C 6.498,2.736 6.498,2.736 6.498,2.736 6.5,2.736 6.501,2.736 6.501,2.736 6.501,2.736 6.5,2.736 6.498,2.736 Z M 6.11,1.425 C 6.104,1.425 6.106,1.414 6.102,1.414 6.106,1.414 6.108,1.425 6.113,1.425 6.111,1.425 6.111,1.425 6.11,1.425 Z M 1.045,1.233 1.045,1.233 C 1.043,1.233 1.043,1.233 1.04,1.233 1.042,1.233 1.045,1.233 1.045,1.233 Z M 0.7936,1.188 0.7936,1.188 C 0.7946,1.188 0.7966,1.188 0.7986,1.188 0.7966,1.188 0.7956,1.188 0.7936,1.188 Z M 2.551,0.4083 C 2.551,0.4083 2.55,0.397 2.553,0.397 2.555,0.397 2.557,0.397 2.559,0.397 2.555,0.4083 2.551,0.4083 2.551,0.4083 Z M 0.8591,2.634 C 0.852,2.634 0.8439,2.634 0.8369,2.634 0.8369,2.623 0.8399,2.634 0.8409,2.623 0.848,2.634 0.854,2.623 0.8591,2.634 Z M 0.705,2.612 C 0.6999,2.612 0.6949,2.612 0.6889,2.612 0.6909,2.612 0.6929,2.612 0.6949,2.612 0.6979,2.612 0.703,2.612 0.705,2.612 Z M 0.5429,2.567 0.5439,2.567 C 0.5429,2.567 0.5429,2.567 0.5429,2.567 Z M 4.029,0.3179 C 4.029,0.3179 4.029,0.3179 4.029,0.3179 4.029,0.3179 4.029,0.3179 4.028,0.3179 L 4.029,0.3179 Z M 6.921,2.069 C 6.919,2.069 6.919,2.069 6.917,2.069 6.913,2.069 6.909,2.058 6.904,2.058 6.903,2.058 6.903,2.058 6.901,2.058 6.904,2.058 6.904,2.047 6.907,2.047 6.901,2.047 6.897,2.035 6.892,2.035 L 6.889,2.035 C 6.888,2.035 6.887,2.035 6.887,2.035 6.888,2.035 6.889,2.035 6.892,2.035 6.881,1.99 6.904,1.934 6.874,1.889 6.873,1.9 6.872,1.9 6.87,1.9 L 6.874,1.889 C 6.873,1.877 6.861,1.855 6.844,1.855 6.843,1.855 6.841,1.866 6.841,1.866 6.841,1.866 6.841,1.866 6.841,1.866 L 6.844,1.855 C 6.838,1.855 6.833,1.843 6.828,1.843 L 6.823,1.843 C 6.82,1.843 6.82,1.843 6.82,1.843 6.824,1.843 6.825,1.843 6.828,1.843 6.823,1.832 6.817,1.832 6.812,1.821 6.791,1.787 6.764,1.764 6.733,1.73 6.728,1.73 6.723,1.719 6.718,1.719 6.703,1.697 6.68,1.697 6.662,1.708 6.599,1.73 6.527,1.719 6.467,1.753 6.462,1.753 6.457,1.753 6.452,1.753 6.448,1.753 6.443,1.753 6.439,1.753 6.421,1.753 6.403,1.753 6.389,1.776 L 6.393,1.776 C 6.393,1.776 6.391,1.776 6.391,1.776 6.391,1.776 6.389,1.776 6.389,1.776 6.367,1.776 6.342,1.764 6.325,1.787 6.326,1.787 6.327,1.787 6.33,1.787 6.329,1.787 6.329,1.787 6.329,1.787 L 6.325,1.787 C 6.312,1.787 6.302,1.787 6.294,1.809 L 6.297,1.809 C 6.297,1.809 6.297,1.809 6.297,1.809 6.296,1.809 6.296,1.809 6.294,1.809 6.281,1.798 6.251,1.821 6.262,1.776 6.29,1.697 6.285,1.617 6.262,1.538 6.25,1.493 6.25,1.459 6.301,1.437 6.267,1.414 6.239,1.425 6.219,1.403 6.196,1.346 6.167,1.301 6.111,1.29 L 6.108,1.301 C 6.108,1.301 6.108,1.301 6.108,1.301 6.108,1.301 6.11,1.301 6.111,1.29 6.108,1.267 6.074,1.244 6.079,1.222 6.085,1.177 6.07,1.177 6.042,1.177 5.939,1.165 5.839,1.199 5.735,1.199 5.73,1.199 5.723,1.211 5.718,1.211 5.712,1.211 5.707,1.211 5.703,1.211 5.691,1.199 5.68,1.199 5.672,1.211 5.672,1.211 5.672,1.211 5.674,1.211 5.621,1.211 5.566,1.222 5.533,1.154 5.52,1.131 5.495,1.143 5.475,1.143 L 5.471,1.143 5.468,1.143 C 5.455,1.12 5.434,1.131 5.418,1.131 5.411,1.098 5.388,1.075 5.385,1.052 5.395,1.041 5.4,1.041 5.403,1.03 5.435,1.041 5.451,1.007 5.471,0.9846 5.491,0.9733 5.503,0.9394 5.532,0.9281 5.586,0.9168 5.629,0.8716 5.68,0.849 5.731,0.8151 5.758,0.7473 5.725,0.7021 5.692,0.6456 5.692,0.5891 5.672,0.5439 5.669,0.5326 5.666,0.5213 5.657,0.51 L 5.654,0.51 C 5.654,0.51 5.655,0.51 5.657,0.51 5.654,0.4648 5.645,0.4083 5.624,0.3631 5.623,0.3518 5.62,0.3405 5.609,0.3292 L 5.604,0.3405 C 5.604,0.3405 5.604,0.3405 5.603,0.3405 5.604,0.3405 5.606,0.3405 5.609,0.3292 5.603,0.2953 5.592,0.2614 5.563,0.2501 5.561,0.2275 5.557,0.2162 5.546,0.2049 5.544,0.2162 5.544,0.2162 5.541,0.2162 5.541,0.2162 5.541,0.2162 5.541,0.2162 L 5.546,0.2049 C 5.541,0.2049 5.537,0.2049 5.532,0.1936 L 5.528,0.1936 C 5.525,0.1936 5.525,0.1936 5.525,0.1936 5.528,0.1936 5.529,0.1936 5.532,0.1936 5.529,0.1823 5.523,0.171 5.511,0.1597 L 5.509,0.1597 C 5.509,0.1597 5.509,0.1597 5.509,0.1597 5.509,0.1597 5.509,0.1597 5.509,0.1597 5.509,0.1597 5.509,0.1597 5.509,0.1597 5.508,0.1484 5.503,0.1484 5.494,0.1371 5.491,0.1484 5.485,0.1484 5.483,0.1371 5.431,0.1484 5.378,0.1484 5.326,0.1597 L 5.329,0.1597 C 5.309,0.1597 5.289,0.1597 5.269,0.1597 5.248,0.171 5.231,0.1597 5.217,0.1371 5.159,0.1597 5.098,0.171 5.044,0.2162 5.019,0.2162 4.988,0.1936 4.97,0.2275 4.932,0.2388 4.891,0.2388 4.858,0.2614 L 4.86,0.2614 C 4.841,0.284 4.813,0.2614 4.796,0.284 L 4.797,0.284 C 4.787,0.2953 4.773,0.284 4.763,0.2953 L 4.76,0.3066 4.755,0.2953 C 4.732,0.2953 4.71,0.2953 4.686,0.2953 4.682,0.3066 4.677,0.3066 4.672,0.3179 4.604,0.3292 4.536,0.3518 4.467,0.3744 4.463,0.3744 4.457,0.3857 4.452,0.3857 4.395,0.3857 4.339,0.4083 4.278,0.4083 4.275,0.4083 4.269,0.4196 4.264,0.4196 4.258,0.4196 4.254,0.4196 4.249,0.4196 4.238,0.4083 4.228,0.4083 4.217,0.4196 4.177,0.4196 4.137,0.4083 4.105,0.4422 4.054,0.4874 3.991,0.4761 3.935,0.51 3.908,0.5213 3.884,0.4761 3.858,0.4874 3.833,0.4874 3.835,0.5326 3.799,0.5439 3.762,0.5552 3.724,0.5665 3.687,0.5665 3.682,0.5665 3.684,0.5778 3.687,0.5778 3.687,0.5778 3.687,0.5665 3.687,0.5665 3.68,0.5665 3.675,0.5665 3.67,0.5665 3.67,0.5665 3.67,0.5778 3.67,0.5778 3.653,0.5778 3.638,0.5778 3.623,0.5778 3.618,0.5891 3.613,0.5891 3.608,0.6004 L 3.603,0.6004 3.598,0.6004 C 3.585,0.5891 3.568,0.6117 3.561,0.5891 3.565,0.5665 3.593,0.5778 3.594,0.5439 3.543,0.5439 3.512,0.5552 3.496,0.6117 3.484,0.6117 3.472,0.6117 3.472,0.6004 3.475,0.5552 3.455,0.5665 3.429,0.5778 3.407,0.5891 3.403,0.6117 3.404,0.6343 3.399,0.6343 3.395,0.6343 3.389,0.6343 3.383,0.623 3.378,0.623 3.373,0.6343 L 3.376,0.6343 C 3.368,0.6343 3.363,0.6343 3.358,0.6343 3.339,0.6343 3.311,0.6343 3.318,0.6004 3.323,0.5665 3.312,0.5665 3.291,0.5665 3.273,0.5665 3.254,0.5552 3.238,0.5778 3.259,0.6004 3.286,0.6117 3.279,0.6456 3.261,0.6682 3.238,0.6569 3.217,0.6682 3.207,0.6682 3.196,0.6682 3.185,0.6682 3.152,0.6343 3.152,0.6343 3.149,0.5552 3.148,0.4987 3.184,0.4761 3.217,0.4535 3.25,0.4535 3.283,0.4535 3.312,0.4761 3.331,0.4987 3.354,0.4987 3.375,0.4761 3.404,0.4761 3.435,0.4761 3.464,0.4761 3.541,0.4648 3.616,0.4535 3.686,0.4196 L 3.684,0.4196 C 3.724,0.4083 3.768,0.4196 3.81,0.4083 3.825,0.3857 3.847,0.3857 3.868,0.3857 3.875,0.3857 3.883,0.3857 3.889,0.3857 3.904,0.3744 3.92,0.3744 3.935,0.3744 3.986,0.3744 4.031,0.3518 4.076,0.3405 4.074,0.3292 4.074,0.3292 4.071,0.3292 4.071,0.3292 4.071,0.3292 4.073,0.3292 L 4.076,0.3405 C 4.094,0.3292 4.112,0.3405 4.123,0.3179 L 4.13,0.3179 4.137,0.3179 C 4.164,0.3179 4.193,0.3292 4.215,0.2953 4.22,0.2953 4.223,0.2953 4.228,0.2953 4.247,0.2953 4.264,0.2953 4.278,0.284 4.281,0.284 4.281,0.284 4.282,0.2727 4.284,0.2727 4.282,0.2727 4.278,0.2614 4.238,0.2388 4.196,0.2162 4.148,0.2501 4.135,0.2501 4.117,0.2501 4.104,0.2501 4.006,0.2275 3.923,0.2614 3.84,0.3179 3.843,0.3179 3.844,0.3179 3.845,0.3179 L 3.84,0.3179 C 3.828,0.3179 3.818,0.3179 3.81,0.3292 3.797,0.3292 3.787,0.3405 3.779,0.3518 3.769,0.3518 3.76,0.3518 3.751,0.3518 3.735,0.3518 3.719,0.3518 3.704,0.3518 3.632,0.3179 3.563,0.3405 3.493,0.3631 3.462,0.3744 3.429,0.3857 3.396,0.3744 3.368,0.3631 3.337,0.3405 3.351,0.4083 3.354,0.4196 3.333,0.4196 3.321,0.4196 3.296,0.4196 3.27,0.4196 3.243,0.4196 3.241,0.4309 3.236,0.4309 3.233,0.4196 3.228,0.4196 3.222,0.4196 3.216,0.4196 3.212,0.4309 3.208,0.4309 3.204,0.4196 3.137,0.3857 3.07,0.3518 2.998,0.4083 2.987,0.4083 2.976,0.4083 2.966,0.4083 2.951,0.3857 2.929,0.3857 2.909,0.3857 2.85,0.3857 2.791,0.3857 2.732,0.3857 2.731,0.3857 2.731,0.3857 2.731,0.3857 2.731,0.3857 2.731,0.3857 2.731,0.3857 L 2.732,0.3857 C 2.706,0.3518 2.671,0.3744 2.639,0.3631 2.628,0.3518 2.61,0.3518 2.594,0.3518 2.585,0.3405 2.573,0.3292 2.559,0.3292 2.542,0.3292 2.548,0.3518 2.537,0.3518 2.53,0.3631 2.522,0.3631 2.52,0.3744 2.515,0.3857 2.492,0.3857 2.495,0.4083 2.498,0.4196 2.501,0.4309 2.513,0.4422 2.515,0.4648 2.525,0.4874 2.544,0.4987 L 2.548,0.4874 C 2.548,0.4874 2.548,0.4874 2.548,0.4874 2.546,0.4874 2.545,0.4874 2.544,0.4987 2.554,0.5326 2.565,0.5665 2.575,0.6004 2.575,0.623 2.58,0.6569 2.605,0.6682 2.608,0.6682 2.61,0.6682 2.611,0.6682 L 2.605,0.6682 C 2.61,0.6908 2.615,0.7021 2.619,0.7134 2.601,0.7247 2.582,0.7247 2.566,0.7247 2.549,0.736 2.54,0.7586 2.539,0.7812 2.537,0.8038 2.557,0.7925 2.571,0.8038 2.585,0.8038 2.598,0.8151 2.6,0.8377 2.604,0.8603 2.582,0.8603 2.573,0.8716 2.537,0.9055 2.487,0.8829 2.449,0.9055 2.452,0.9168 2.452,0.9168 2.454,0.9168 L 2.449,0.9055 C 2.429,0.9168 2.404,0.9055 2.389,0.9281 L 2.39,0.9281 2.389,0.9281 C 2.389,0.9281 2.389,0.9281 2.389,0.9281 2.36,0.9281 2.331,0.9168 2.308,0.9507 2.31,0.9507 2.313,0.9507 2.314,0.9507 2.313,0.9507 2.313,0.9507 2.313,0.9507 L 2.308,0.9507 C 2.283,0.9507 2.253,0.9394 2.233,0.962 L 2.235,0.9733 C 2.234,0.9733 2.233,0.9733 2.233,0.9733 2.233,0.9733 2.233,0.962 2.233,0.962 2.192,0.9846 2.149,0.9281 2.104,0.9733 2.069,1.007 2.009,0.9959 1.966,1.018 1.92,1.03 1.869,0.9959 1.827,1.03 L 1.829,1.041 C 1.828,1.041 1.827,1.041 1.827,1.041 1.827,1.041 1.827,1.041 1.827,1.03 1.739,1.03 1.651,1.03 1.562,1.03 L 1.558,1.041 1.557,1.041 C 1.56,1.041 1.561,1.041 1.562,1.03 1.497,1.018 1.433,1.007 1.367,0.9959 1.332,0.9959 1.302,0.9959 1.275,1.018 1.27,1.03 1.266,1.018 1.264,1.018 1.257,1.007 1.246,0.9959 1.234,0.9959 1.204,0.9733 1.17,0.9846 1.139,0.9846 1.137,0.9846 1.136,0.9846 1.136,0.9846 1.136,0.9846 1.136,0.9846 1.136,0.9846 L 1.139,0.9846 C 1.126,0.962 1.106,0.962 1.089,0.9733 L 1.089,0.9733 C 1.076,0.9507 1.053,0.962 1.038,0.9507 1.034,0.9507 1.03,0.9507 1.027,0.9507 1.022,0.9281 1.01,0.9281 0.996,0.9281 0.9749,0.9168 0.9547,0.9168 0.9376,0.9394 L 0.9376,0.9394 C 0.9396,0.962 0.9587,0.9507 0.9658,0.962 0.9598,0.9733 0.9527,0.9733 0.9457,0.9846 0.9376,0.9846 0.9265,0.9846 0.9195,0.9733 0.9044,0.9733 0.8893,0.9733 0.8752,0.9846 L 0.8752,0.9846 C 0.8721,0.9846 0.8691,0.9846 0.8651,0.9959 0.8691,0.9959 0.8721,0.9959 0.8752,0.9959 L 0.8742,0.9959 C 0.8772,1.007 0.8832,1.007 0.8883,1.018 0.8943,1.03 0.9064,1.03 0.9195,1.041 0.9195,1.03 0.9195,1.03 0.9195,1.03 0.9195,1.03 0.9205,1.03 0.9205,1.03 L 0.9195,1.041 C 0.9255,1.052 0.9376,1.052 0.9497,1.052 L 0.9547,1.052 C 0.9527,1.052 0.9507,1.052 0.9497,1.052 0.9598,1.075 0.9749,1.086 0.996,1.086 L 1,1.086 C 1.002,1.086 1.002,1.086 1.002,1.086 1,1.086 0.998,1.086 0.996,1.086 1.018,1.131 0.9839,1.12 0.9668,1.12 0.9658,1.12 0.9658,1.12 0.9648,1.131 0.9648,1.12 0.9648,1.12 0.9648,1.12 L 0.9668,1.12 C 0.9598,1.109 0.9497,1.109 0.9376,1.109 0.9175,1.075 0.8943,1.109 0.8721,1.098 0.8137,1.052 0.7553,1.075 0.6999,1.109 0.6929,1.098 0.6778,1.098 0.6677,1.086 L 0.6687,1.086 C 0.6526,1.064 0.6244,1.086 0.6063,1.075 0.5972,1.064 0.5821,1.064 0.569,1.064 0.566,1.064 0.564,1.064 0.562,1.064 0.5167,1.052 0.4724,1.052 0.423,1.064 0.4381,1.098 0.4583,1.098 0.4804,1.109 0.4935,1.131 0.5116,1.12 0.5288,1.12 0.5257,1.12 0.5257,1.109 0.5257,1.109 0.5277,1.109 0.5288,1.109 0.5288,1.109 0.5257,1.109 0.5257,1.12 0.5288,1.12 0.5388,1.131 0.5529,1.131 0.564,1.143 0.569,1.143 0.5721,1.143 0.5771,1.143 0.5851,1.154 0.5992,1.143 0.6063,1.154 0.6174,1.165 0.6295,1.165 0.6395,1.177 L 0.6385,1.177 C 0.6476,1.199 0.6677,1.188 0.6828,1.199 0.6949,1.211 0.711,1.233 0.7312,1.233 L 0.7352,1.222 C 0.7332,1.222 0.7332,1.233 0.7312,1.233 0.7402,1.256 0.7553,1.256 0.7785,1.267 L 0.7805,1.256 C 0.7805,1.256 0.7785,1.267 0.7785,1.267 0.8137,1.301 0.853,1.335 0.9044,1.346 0.9044,1.346 0.9044,1.346 0.9054,1.346 L 0.9064,1.346 0.9044,1.346 C 0.9094,1.369 0.9215,1.369 0.9336,1.369 0.9668,1.414 1.01,1.437 1.06,1.437 L 1.06,1.437 1.06,1.437 C 1.067,1.448 1.079,1.459 1.091,1.459 1.091,1.459 1.091,1.459 1.092,1.459 L 1.094,1.459 1.091,1.459 C 1.099,1.47 1.109,1.47 1.121,1.47 L 1.126,1.47 C 1.124,1.47 1.123,1.47 1.121,1.47 1.134,1.493 1.151,1.493 1.168,1.493 L 1.171,1.493 C 1.17,1.493 1.169,1.493 1.168,1.493 1.22,1.55 1.287,1.55 1.35,1.572 1.41,1.595 1.471,1.606 1.532,1.617 1.552,1.617 1.567,1.629 1.572,1.651 1.578,1.674 1.557,1.685 1.541,1.685 1.532,1.697 1.522,1.697 1.527,1.708 1.536,1.719 1.554,1.708 1.56,1.73 1.545,1.742 1.527,1.73 1.509,1.742 1.509,1.742 1.513,1.753 1.516,1.753 1.514,1.753 1.514,1.753 1.514,1.753 1.514,1.753 1.512,1.742 1.509,1.742 1.506,1.742 1.502,1.742 1.497,1.742 1.479,1.719 1.453,1.742 1.433,1.719 1.405,1.708 1.376,1.708 1.345,1.719 L 1.344,1.719 1.341,1.719 C 1.342,1.719 1.342,1.719 1.342,1.719 1.315,1.753 1.344,1.753 1.361,1.753 L 1.368,1.753 1.373,1.753 C 1.383,1.776 1.408,1.764 1.419,1.787 1.36,1.787 1.3,1.787 1.241,1.787 1.224,1.787 1.199,1.787 1.191,1.809 1.179,1.843 1.155,1.843 1.129,1.843 1.109,1.843 1.09,1.855 1.089,1.889 1.106,1.9 1.125,1.889 1.144,1.889 L 1.149,1.889 1.154,1.9 C 1.166,1.911 1.189,1.9 1.203,1.911 L 1.201,1.911 C 1.244,1.945 1.292,1.945 1.34,1.945 1.35,1.956 1.363,1.956 1.361,1.968 1.356,1.99 1.338,1.979 1.325,1.979 1.325,1.979 1.325,1.99 1.325,1.99 1.325,1.99 1.325,1.99 1.324,1.99 L 1.325,1.979 C 1.271,1.945 1.212,1.979 1.154,1.968 1.154,1.968 1.154,1.968 1.154,1.968 1.154,1.968 1.154,1.968 1.152,1.968 L 1.154,1.968 C 1.134,1.934 1.104,1.956 1.079,1.945 L 1.075,1.945 C 1.076,1.945 1.076,1.945 1.079,1.945 1.009,1.877 0.9457,1.934 0.8993,1.979 0.8641,2.013 0.8288,2.013 0.7896,2.024 0.7714,2.013 0.7513,2.013 0.7322,2.013 0.7251,2.013 0.7201,2.002 0.715,2.002 0.6999,2.002 0.6848,2.002 0.6687,2.002 0.6627,1.99 0.6577,1.99 0.6526,1.979 0.6375,1.979 0.6224,1.979 0.6063,1.979 0.6013,1.968 0.5922,1.968 0.5821,1.968 0.5721,1.968 0.559,1.968 0.557,1.979 0.5549,1.99 0.566,1.99 0.5771,2.002 0.5821,2.002 0.5862,2.002 0.5922,2.002 0.6023,2.002 0.6123,2.002 0.6224,2.002 0.6284,2.002 0.6335,2.013 0.6375,2.013 0.6436,2.013 0.6486,2.013 0.6546,2.013 0.6597,2.024 0.6647,2.024 0.6697,2.035 0.6818,2.035 0.6909,2.035 0.703,2.035 L 0.6999,2.035 C 0.708,2.035 0.713,2.047 0.7231,2.047 0.7271,2.047 0.7312,2.058 0.7322,2.058 0.7805,2.126 0.846,2.137 0.9195,2.137 0.9195,2.137 0.9195,2.137 0.9205,2.137 L 0.9215,2.137 0.9195,2.137 C 0.9416,2.16 0.9698,2.171 0.996,2.171 L 1,2.171 C 0.999,2.171 0.998,2.171 0.996,2.171 1.053,2.228 1.121,2.239 1.186,2.262 1.199,2.262 1.21,2.25 1.217,2.239 1.222,2.239 1.227,2.239 1.232,2.239 1.237,2.262 1.25,2.262 1.262,2.262 L 1.264,2.262 C 1.265,2.262 1.264,2.262 1.264,2.262 L 1.262,2.262 C 1.246,2.307 1.206,2.295 1.176,2.318 1.152,2.329 1.141,2.352 1.104,2.352 0.9497,2.352 0.7936,2.352 0.6395,2.352 0.6143,2.352 0.5882,2.341 0.566,2.363 0.5721,2.374 0.5731,2.374 0.5771,2.386 0.5851,2.386 0.5972,2.386 0.6063,2.386 0.6224,2.408 0.6436,2.408 0.6637,2.408 0.708,2.408 0.7513,2.408 0.7936,2.408 0.7936,2.408 0.7936,2.397 0.7946,2.397 0.7946,2.397 0.7956,2.397 0.7956,2.397 L 0.7936,2.408 C 0.852,2.442 0.9124,2.42 0.9728,2.42 L 0.9779,2.42 0.9829,2.42 C 0.99,2.431 1.003,2.442 1.015,2.442 1.145,2.465 1.275,2.487 1.401,2.533 1.402,2.521 1.404,2.521 1.404,2.521 1.404,2.521 1.404,2.521 1.405,2.521 L 1.401,2.533 C 1.401,2.555 1.386,2.567 1.366,2.555 1.329,2.555 1.295,2.567 1.261,2.578 1.295,2.6 1.327,2.578 1.361,2.578 1.327,2.578 1.292,2.578 1.261,2.578 L 1.262,2.578 C 1.252,2.555 1.235,2.555 1.216,2.567 1.176,2.567 1.139,2.567 1.099,2.567 1.091,2.567 1.084,2.567 1.076,2.567 1.045,2.544 1.01,2.567 0.9799,2.544 L 0.9819,2.544 C 0.9698,2.521 0.9467,2.521 0.9265,2.521 0.8661,2.521 0.8057,2.521 0.7443,2.533 0.7201,2.521 0.6949,2.521 0.6697,2.521 0.5841,2.487 0.4965,2.51 0.4089,2.51 0.3797,2.51 0.3999,2.544 0.4029,2.567 0.3999,2.567 0.4049,2.567 0.4049,2.578 0.4039,2.567 0.4039,2.567 0.4029,2.567 0.3465,2.567 0.2881,2.567 0.2297,2.567 0.2156,2.567 0.2005,2.555 0.1844,2.555 0.1713,2.555 0.1582,2.555 0.1471,2.555 0.1209,2.544 0.0927,2.544 0.0605,2.533 0.0796,2.567 0.0998,2.578 0.1219,2.578 L 0.1229,2.578 C 0.136,2.589 0.1572,2.578 0.1713,2.6 0.1864,2.6 0.2015,2.6 0.2166,2.6 0.2579,2.623 0.3022,2.612 0.3455,2.612 0.3314,2.6 0.3122,2.6 0.2941,2.589 0.2941,2.589 0.2941,2.589 0.2941,2.589 0.3102,2.612 0.3304,2.6 0.3455,2.612 0.3545,2.612 0.3636,2.612 0.3727,2.612 0.423,2.646 0.4784,2.623 0.5318,2.634 L 0.5388,2.634 0.5439,2.634 C 0.5791,2.668 0.6194,2.646 0.6577,2.646 L 0.6647,2.646 0.6697,2.646 C 0.703,2.68 0.7432,2.657 0.7785,2.668 0.7896,2.691 0.8087,2.68 0.8238,2.68 0.846,2.713 0.8772,2.702 0.9034,2.702 0.9034,2.702 0.9044,2.702 0.9044,2.702 L 0.9034,2.702 C 0.9265,2.725 0.9587,2.713 0.9869,2.713 L 0.993,2.713 0.998,2.713 C 1.013,2.736 1.033,2.725 1.047,2.736 L 1.045,2.736 C 1.096,2.759 1.151,2.759 1.201,2.77 L 1.201,2.77 C 1.252,2.793 1.306,2.793 1.36,2.804 L 1.359,2.804 C 1.367,2.826 1.386,2.826 1.404,2.826 1.408,2.826 1.413,2.838 1.419,2.838 L 1.424,2.838 C 1.424,2.838 1.425,2.838 1.426,2.838 1.424,2.838 1.421,2.838 1.419,2.838 1.424,2.849 1.428,2.849 1.433,2.86 L 1.436,2.86 C 1.437,2.86 1.436,2.86 1.437,2.86 1.436,2.86 1.436,2.86 1.433,2.86 1.433,2.872 1.433,2.883 1.421,2.894 1.376,2.849 1.376,2.849 1.34,2.917 1.314,2.939 1.34,2.951 1.357,2.962 1.359,2.962 1.36,2.962 1.361,2.962 L 1.361,2.962 1.357,2.962 C 1.362,2.973 1.366,2.973 1.371,2.985 L 1.373,2.985 C 1.372,2.985 1.372,2.985 1.371,2.985 1.38,3.019 1.388,3.052 1.42,3.075 1.421,3.075 1.421,3.064 1.424,3.064 L 1.42,3.075 C 1.426,3.086 1.439,3.086 1.45,3.086 1.451,3.086 1.451,3.086 1.452,3.086 L 1.45,3.086 C 1.455,3.098 1.46,3.098 1.466,3.109 L 1.47,3.098 C 1.47,3.098 1.47,3.098 1.471,3.098 1.468,3.098 1.466,3.098 1.466,3.109 1.486,3.132 1.506,3.165 1.545,3.177 1.545,3.177 1.547,3.165 1.547,3.165 1.547,3.165 1.549,3.165 1.55,3.165 L 1.545,3.177 C 1.565,3.211 1.583,3.233 1.622,3.245 1.622,3.245 1.625,3.245 1.625,3.233 L 1.626,3.233 1.622,3.245 C 1.631,3.267 1.648,3.278 1.67,3.278 1.67,3.278 1.671,3.278 1.671,3.278 L 1.67,3.278 C 1.675,3.29 1.679,3.29 1.686,3.301 1.686,3.301 1.686,3.29 1.687,3.29 1.687,3.29 1.688,3.29 1.688,3.29 L 1.686,3.301 C 1.691,3.301 1.696,3.312 1.701,3.312 1.706,3.324 1.713,3.335 1.723,3.335 1.731,3.346 1.75,3.346 1.732,3.369 1.716,3.369 1.698,3.369 1.686,3.38 1.681,3.391 1.675,3.391 1.668,3.403 1.663,3.403 1.659,3.414 1.655,3.425 L 1.655,3.425 C 1.646,3.425 1.648,3.448 1.637,3.459 L 1.638,3.459 C 1.632,3.459 1.627,3.471 1.622,3.471 1.617,3.482 1.612,3.482 1.607,3.493 1.607,3.516 1.607,3.55 1.607,3.584 1.612,3.584 1.617,3.595 1.622,3.595 L 1.622,3.595 C 1.627,3.606 1.633,3.606 1.64,3.617 L 1.638,3.617 C 1.642,3.617 1.646,3.629 1.65,3.629 1.655,3.64 1.663,3.64 1.671,3.651 1.679,3.663 1.693,3.651 1.702,3.663 1.707,3.663 1.712,3.663 1.718,3.663 L 1.716,3.674 C 1.721,3.674 1.726,3.674 1.731,3.674 1.736,3.663 1.741,3.663 1.747,3.663 1.752,3.663 1.757,3.663 1.762,3.663 1.768,3.663 1.773,3.651 1.779,3.651 1.807,3.64 1.818,3.629 1.792,3.606 1.761,3.595 1.736,3.572 1.716,3.538 1.706,3.527 1.707,3.516 1.716,3.504 1.721,3.504 1.727,3.504 1.732,3.504 1.737,3.516 1.742,3.516 1.748,3.527 1.752,3.516 1.759,3.516 1.763,3.504 1.768,3.504 1.768,3.493 1.766,3.482 1.764,3.482 1.764,3.482 1.763,3.482 1.771,3.459 1.773,3.437 1.763,3.425 1.761,3.425 1.761,3.414 1.76,3.414 1.761,3.414 1.76,3.414 1.763,3.425 1.763,3.414 1.763,3.414 1.763,3.403 L 1.763,3.403 C 1.786,3.403 1.804,3.414 1.82,3.437 1.865,3.471 1.99,3.55 2.051,3.561 L 2.055,3.561 2.061,3.561 C 2.079,3.584 2.103,3.584 2.125,3.595 L 2.124,3.595 C 2.132,3.606 2.147,3.606 2.157,3.606 L 2.156,3.606 C 2.163,3.629 2.177,3.617 2.189,3.629 L 2.187,3.629 C 2.194,3.64 2.209,3.64 2.22,3.64 L 2.217,3.64 C 2.228,3.663 2.245,3.651 2.259,3.663 2.262,3.663 2.263,3.663 2.265,3.663 2.31,3.685 2.355,3.719 2.407,3.719 L 2.407,3.719 C 2.429,3.742 2.461,3.742 2.495,3.753 2.541,3.764 2.589,3.764 2.631,3.776 2.734,3.821 2.84,3.832 2.943,3.832 3.084,3.843 3.226,3.866 3.368,3.855 3.407,3.855 3.446,3.866 3.483,3.866 3.53,3.866 3.581,3.877 3.623,3.843 3.63,3.832 3.641,3.832 3.648,3.843 3.683,3.843 3.717,3.843 3.749,3.832 3.792,3.81 3.835,3.787 3.878,3.832 3.888,3.843 3.913,3.832 3.93,3.843 3.999,3.855 4.065,3.821 4.132,3.821 4.251,3.832 4.354,3.787 4.452,3.719 4.481,3.719 4.512,3.73 4.538,3.719 4.606,3.685 4.678,3.708 4.746,3.697 4.753,3.685 4.762,3.685 4.767,3.697 4.772,3.708 4.762,3.73 4.782,3.73 4.797,3.73 4.792,3.708 4.8,3.697 4.821,3.663 4.868,3.651 4.872,3.674 4.881,3.719 4.911,3.697 4.916,3.685 4.936,3.651 4.974,3.651 4.999,3.629 4.999,3.629 4.995,3.629 4.994,3.629 4.994,3.629 4.995,3.629 4.997,3.629 L 4.999,3.629 C 5.087,3.629 5.174,3.617 5.25,3.561 5.249,3.561 5.246,3.561 5.244,3.561 5.245,3.561 5.246,3.561 5.246,3.561 L 5.25,3.561 C 5.309,3.561 5.368,3.55 5.407,3.493 5.405,3.493 5.404,3.493 5.403,3.493 L 5.407,3.493 C 5.435,3.493 5.468,3.493 5.483,3.459 L 5.48,3.448 C 5.48,3.448 5.48,3.448 5.482,3.448 5.482,3.448 5.483,3.459 5.483,3.459 5.513,3.459 5.541,3.448 5.561,3.425 L 5.559,3.414 C 5.559,3.414 5.559,3.414 5.559,3.414 5.56,3.414 5.561,3.425 5.561,3.425 5.623,3.391 5.686,3.369 5.735,3.312 5.732,3.312 5.73,3.312 5.73,3.312 L 5.735,3.312 C 5.772,3.312 5.805,3.29 5.829,3.245 5.826,3.245 5.825,3.245 5.824,3.233 L 5.829,3.245 C 5.849,3.245 5.865,3.233 5.873,3.211 L 5.871,3.211 5.871,3.199 C 5.872,3.211 5.873,3.211 5.873,3.211 5.906,3.199 5.935,3.188 5.951,3.154 5.956,3.154 5.962,3.143 5.967,3.143 L 5.965,3.132 C 5.965,3.132 5.965,3.132 5.966,3.132 5.967,3.132 5.967,3.143 5.967,3.143 5.998,3.143 6.015,3.109 6.031,3.086 6.03,3.086 6.029,3.086 6.027,3.086 L 6.031,3.086 C 6.042,3.086 6.054,3.086 6.06,3.075 6.066,3.064 6.072,3.052 6.078,3.052 6.082,3.041 6.087,3.041 6.091,3.03 6.098,3.03 6.102,3.019 6.108,3.019 6.113,3.007 6.119,3.007 6.124,2.996 6.124,2.996 6.124,2.985 6.124,2.985 6.139,2.973 6.15,2.962 6.153,2.939 L 6.153,2.951 C 6.166,2.928 6.188,2.951 6.201,2.928 L 6.199,2.928 C 6.208,2.917 6.224,2.928 6.232,2.917 L 6.236,2.906 6.242,2.906 C 6.257,2.906 6.272,2.906 6.28,2.894 L 6.278,2.894 6.28,2.894 C 6.28,2.894 6.28,2.894 6.28,2.894 6.325,2.883 6.37,2.883 6.406,2.838 L 6.402,2.838 C 6.402,2.838 6.403,2.838 6.403,2.838 6.403,2.838 6.404,2.838 6.406,2.838 6.443,2.838 6.481,2.838 6.518,2.838 6.542,2.838 6.558,2.838 6.562,2.804 L 6.562,2.804 6.562,2.804 C 6.567,2.804 6.572,2.793 6.577,2.793 L 6.577,2.793 6.577,2.793 C 6.593,2.793 6.611,2.793 6.622,2.77 6.627,2.77 6.632,2.77 6.638,2.77 6.651,2.759 6.672,2.77 6.686,2.759 6.702,2.747 6.717,2.747 6.714,2.725 6.713,2.713 6.7,2.702 6.688,2.702 6.669,2.702 6.652,2.702 6.639,2.713 6.647,2.725 6.663,2.713 6.676,2.725 6.663,2.713 6.652,2.713 6.639,2.713 L 6.637,2.713 C 6.634,2.725 6.629,2.725 6.625,2.736 6.619,2.736 6.614,2.736 6.609,2.736 6.579,2.713 6.612,2.691 6.609,2.668 L 6.603,2.657 C 6.603,2.657 6.603,2.657 6.605,2.657 6.606,2.657 6.607,2.668 6.609,2.668 6.626,2.657 6.658,2.646 6.652,2.612 6.645,2.578 6.659,2.544 6.653,2.51 6.639,2.442 6.662,2.397 6.706,2.352 6.74,2.318 6.783,2.307 6.829,2.295 L 6.837,2.295 6.841,2.295 C 6.849,2.307 6.853,2.307 6.857,2.295 L 6.854,2.295 C 6.864,2.295 6.868,2.284 6.873,2.284 6.904,2.284 6.919,2.262 6.927,2.228 6.939,2.171 6.947,2.126 6.921,2.069 L 6.921,2.069 Z"></path>
</svg>