<?xml version="1.0" encoding="UTF-8"?>
<svg width="8px" height="4px" viewBox="0 0 7 4" version="1.1" xmlns="http://www.w3.org/2000/svg" xmlns:xlink="http://www.w3.org/1999/xlink">
    <path fill="#c673c2" d="M 6.855,2.61 C 6.855,2.61 6.855,2.61 6.855,2.599 6.855,2.599 6.866,2.599 6.866,2.599 6.866,2.61 6.855,2.61 6.855,2.61 Z M 2.003,3.722 2.003,3.722 C 2.003,3.722 2.003,3.722 2.003,3.722 L 2.003,3.722 Z M 1.217,3.25 C 1.217,3.25 1.217,3.25 1.217,3.25 1.217,3.25 1.217,3.25 1.217,3.25 1.217,3.25 1.217,3.25 1.217,3.25 Z M 1.15,3.104 C 1.15,3.116 1.15,3.116 1.15,3.116 1.139,3.116 1.139,3.116 1.139,3.116 1.139,3.104 1.139,3.104 1.15,3.104 Z M 0.8129,2.52 C 0.8129,2.52 0.8129,2.52 0.8129,2.52 0.8129,2.52 0.8129,2.52 0.8129,2.52 0.8129,2.52 0.8129,2.52 0.8129,2.52 Z M 0.7567,1.981 0.768,1.981 C 0.768,1.981 0.7567,1.981 0.768,1.981 0.7567,1.981 0.7567,1.981 0.7455,1.981 L 0.7567,1.981 Z M 1.992,1.51 C 1.992,1.51 1.992,1.51 2.003,1.51 1.992,1.51 1.992,1.51 1.992,1.51 L 1.992,1.51 Z M 0.9701,2.487 C 0.9589,2.487 0.9589,2.476 0.9589,2.476 0.9589,2.476 0.9701,2.487 0.9813,2.487 0.9701,2.487 0.9701,2.487 0.9701,2.487 Z M 1.071,2.476 C 1.071,2.476 1.071,2.487 1.06,2.487 1.06,2.476 1.06,2.476 1.06,2.464 1.06,2.476 1.071,2.476 1.071,2.476 Z M 1.071,2.341 C 1.071,2.341 1.06,2.341 1.06,2.341 1.06,2.341 1.071,2.341 1.071,2.341 Z M 1.24,1.656 C 1.24,1.656 1.228,1.656 1.228,1.656 L 1.24,1.656 1.24,1.656 Z M 1.621,1.611 1.621,1.611 C 1.621,1.611 1.621,1.611 1.621,1.611 L 1.621,1.611 Z M 1.779,1.633 C 1.779,1.633 1.779,1.622 1.79,1.611 1.79,1.611 1.79,1.611 1.79,1.611 1.79,1.622 1.779,1.633 1.779,1.633 Z M 1.453,3.273 C 1.453,3.284 1.453,3.284 1.453,3.295 1.442,3.284 1.453,3.284 1.442,3.284 1.453,3.284 1.453,3.284 1.453,3.273 Z M 1.363,3.082 C 1.386,3.082 1.408,3.082 1.431,3.082 1.419,3.082 1.419,3.082 1.408,3.082 1.397,3.082 1.386,3.082 1.363,3.082 Z M 1.026,1.97 C 1.026,1.981 1.015,1.981 1.015,1.981 1.015,1.97 1.015,1.959 1.004,1.948 1.015,1.959 1.026,1.959 1.026,1.97 Z M 1.139,1.813 C 1.116,1.813 1.105,1.813 1.094,1.835 L 1.094,1.835 C 1.094,1.813 1.116,1.813 1.127,1.813 1.127,1.813 1.127,1.813 1.139,1.813 Z M 1.588,1.656 C 1.577,1.656 1.565,1.656 1.554,1.656 1.565,1.656 1.565,1.656 1.565,1.656 1.577,1.656 1.588,1.656 1.599,1.645 1.599,1.656 1.599,1.656 1.588,1.656 Z M 1.543,3.441 C 1.543,3.441 1.543,3.441 1.543,3.441 1.543,3.441 1.543,3.441 1.543,3.441 1.543,3.441 1.543,3.441 1.543,3.441 Z M 1.509,3.06 C 1.509,3.06 1.52,3.06 1.52,3.06 1.52,3.071 1.52,3.071 1.509,3.082 1.509,3.082 1.509,3.082 1.498,3.082 1.509,3.071 1.509,3.071 1.509,3.06 Z M 0.8466,2.723 C 0.8466,2.723 0.8578,2.723 0.8578,2.723 0.8466,2.723 0.8353,2.723 0.8241,2.734 0.8353,2.723 0.8353,2.723 0.8466,2.723 Z M 1.161,2.678 C 1.161,2.678 1.161,2.678 1.161,2.678 1.161,2.678 1.161,2.678 1.161,2.666 1.161,2.678 1.161,2.678 1.161,2.678 Z M 1.105,2.79 C 1.105,2.79 1.116,2.79 1.116,2.801 1.116,2.79 1.105,2.801 1.105,2.801 1.105,2.79 1.105,2.79 1.105,2.79 Z M 1.161,2.992 C 1.161,2.992 1.161,2.992 1.172,2.992 1.161,2.992 1.161,2.992 1.161,2.992 1.161,2.992 1.161,2.992 1.161,2.992 Z M 1.509,3.116 C 1.52,3.116 1.52,3.116 1.52,3.116 1.52,3.116 1.52,3.116 1.509,3.127 1.509,3.116 1.509,3.116 1.509,3.116 Z M 2.374,0.7573 C 2.374,0.7573 2.363,0.7573 2.363,0.7573 2.363,0.7573 2.363,0.7573 2.363,0.7573 2.363,0.7573 2.374,0.7573 2.374,0.7573 Z M 2.565,0.8813 C 2.565,0.8703 2.554,0.8703 2.542,0.8583 2.554,0.8583 2.565,0.8703 2.565,0.8813 Z M 2.643,0.8253 C 2.643,0.8253 2.643,0.8253 2.643,0.8253 2.643,0.8253 2.643,0.8253 2.643,0.8253 Z M 2.542,0.8813 C 2.531,0.8813 2.531,0.8813 2.531,0.8813 2.531,0.8813 2.531,0.8813 2.542,0.8813 2.542,0.8813 2.542,0.8813 2.542,0.8813 Z M 2.711,0.9713 C 2.711,0.9713 2.722,0.9713 2.722,0.9713 2.722,0.9713 2.711,0.9713 2.711,0.9713 Z M 3.272,0.9713 C 3.272,0.9713 3.272,0.9713 3.272,0.9713 L 3.272,0.9713 Z M 6.439,0.2863 C 6.405,0.2863 6.372,0.2753 6.361,0.2413 6.372,0.2753 6.394,0.2973 6.439,0.2863 Z M 6.585,0.6003 C 6.585,0.6003 6.585,0.6003 6.585,0.6003 6.585,0.6003 6.585,0.6003 6.585,0.6003 6.585,0.6003 6.585,0.6003 6.585,0.6003 Z M 6.619,0.7353 C 6.619,0.7243 6.619,0.7243 6.619,0.7123 6.619,0.7123 6.63,0.7123 6.63,0.7123 6.619,0.7123 6.619,0.7243 6.619,0.7353 Z M 6.282,1.847 C 6.248,1.869 6.226,1.903 6.203,1.937 6.237,1.903 6.259,1.858 6.282,1.824 6.282,1.824 6.282,1.824 6.282,1.824 6.293,1.835 6.282,1.847 6.282,1.847 Z M 5.844,3.464 C 5.844,3.453 5.821,3.453 5.81,3.453 5.81,3.453 5.81,3.453 5.81,3.453 5.821,3.453 5.844,3.464 5.855,3.464 5.855,3.464 5.855,3.464 5.844,3.464 Z M 5.833,3.509 5.833,3.509 C 5.821,3.497 5.821,3.486 5.81,3.475 5.81,3.475 5.81,3.475 5.821,3.475 5.799,3.497 5.81,3.509 5.833,3.509 Z M 6.473,0.5103 6.473,0.5223 C 6.473,0.5223 6.473,0.5223 6.473,0.5223 6.473,0.5223 6.473,0.5223 6.473,0.5103 Z M 6.484,1.577 C 6.484,1.577 6.484,1.577 6.484,1.566 6.484,1.577 6.484,1.577 6.484,1.577 6.484,1.577 6.484,1.577 6.484,1.577 Z M 6.596,0.9933 C 6.596,0.9933 6.585,0.9713 6.585,0.9593 6.596,0.9713 6.608,0.9713 6.619,0.9823 6.608,0.9823 6.608,0.9933 6.596,0.9933 Z M 6.361,1.701 C 6.338,1.701 6.338,1.712 6.338,1.734 6.338,1.723 6.349,1.701 6.361,1.701 Z M 6.439,1.162 C 6.439,1.162 6.439,1.162 6.439,1.162 6.439,1.162 6.439,1.162 6.439,1.162 6.439,1.162 6.439,1.162 6.439,1.162 6.439,1.162 6.439,1.162 6.439,1.162 6.439,1.162 6.439,1.162 6.439,1.162 6.439,1.162 6.439,1.162 6.439,1.162 Z M 6.338,2.914 C 6.361,2.925 6.361,2.936 6.349,2.947 6.349,2.936 6.349,2.925 6.338,2.914 L 6.338,2.914 Z M 6.248,3.138 C 6.248,3.127 6.248,3.127 6.248,3.127 6.248,3.127 6.248,3.127 6.248,3.127 6.248,3.127 6.248,3.127 6.248,3.138 Z M 6.282,3.284 C 6.282,3.284 6.282,3.284 6.282,3.284 6.282,3.284 6.282,3.284 6.282,3.284 6.282,3.284 6.282,3.284 6.282,3.284 Z M 5.765,0.4773 C 5.754,0.4213 5.72,0.3873 5.687,0.3763 5.698,0.3643 5.709,0.3643 5.709,0.3873 5.709,0.4323 5.743,0.4323 5.777,0.4433 5.777,0.4543 5.765,0.4653 5.765,0.4773 Z M 6.113,0.3873 C 6.113,0.3873 6.113,0.3873 6.113,0.3873 6.08,0.3763 6.057,0.3643 6.024,0.3643 6.024,0.3533 6.024,0.3423 6.024,0.3423 6.035,0.3643 6.057,0.3763 6.113,0.3873 Z M 6.17,0.2183 C 6.17,0.2183 6.17,0.2183 6.158,0.2183 6.158,0.2183 6.158,0.2183 6.17,0.2183 6.17,0.2183 6.17,0.2183 6.17,0.2183 6.17,0.2183 6.17,0.2183 6.17,0.2183 Z M 6.439,2.599 C 6.428,2.61 6.428,2.622 6.428,2.633 6.428,2.622 6.428,2.61 6.439,2.599 Z M 6.282,3.06 C 6.282,3.06 6.282,3.06 6.293,3.06 6.282,3.06 6.282,3.06 6.282,3.06 6.282,3.06 6.282,3.06 6.282,3.06 Z M 5.451,0.5223 C 5.451,0.5223 5.451,0.5103 5.451,0.5103 5.451,0.5103 5.451,0.5103 5.451,0.5103 5.451,0.5103 5.451,0.5223 5.451,0.5223 Z M 3.497,1.263 C 3.508,1.263 3.508,1.263 3.519,1.274 3.508,1.274 3.508,1.274 3.508,1.274 3.508,1.274 3.497,1.263 3.497,1.263 3.497,1.263 3.497,1.263 3.497,1.263 Z M 3.575,1.195 C 3.564,1.195 3.564,1.195 3.564,1.195 3.564,1.195 3.575,1.195 3.575,1.184 3.575,1.184 3.575,1.195 3.575,1.195 Z M 4.137,0.9823 C 4.137,0.9823 4.126,0.9933 4.126,0.9933 4.126,0.9933 4.126,0.9933 4.137,0.9823 4.137,0.9823 4.137,0.9823 4.137,0.9823 Z M 4.058,1.016 C 4.047,1.016 4.047,1.016 4.047,1.016 4.047,1.016 4.058,1.016 4.058,1.016 Z M 4.002,1.004 C 4.002,1.004 4.002,1.016 4.002,1.004 4.002,1.016 4.002,1.016 4.002,1.016 4.002,1.016 4.002,1.016 4.002,1.004 Z M 6.989,2.52 C 6.989,2.52 6.989,2.509 6.989,2.509 6.978,2.509 6.967,2.509 6.967,2.52 6.956,2.52 6.956,2.52 6.944,2.52 6.944,2.52 6.933,2.532 6.933,2.532 6.922,2.532 6.922,2.532 6.911,2.532 6.911,2.543 6.9,2.543 6.9,2.554 6.888,2.554 6.877,2.554 6.866,2.554 6.843,2.554 6.832,2.554 6.821,2.565 6.81,2.577 6.798,2.577 6.787,2.588 6.787,2.588 6.798,2.588 6.798,2.588 L 6.787,2.588 C 6.776,2.588 6.765,2.588 6.754,2.61 L 6.754,2.61 C 6.754,2.61 6.754,2.61 6.754,2.61 6.742,2.61 6.72,2.599 6.709,2.622 6.664,2.622 6.63,2.644 6.596,2.655 6.529,2.689 6.518,2.689 6.484,2.622 6.484,2.61 6.495,2.599 6.495,2.588 6.518,2.588 6.551,2.565 6.551,2.554 6.529,2.487 6.585,2.487 6.619,2.464 6.641,2.453 6.652,2.442 6.675,2.419 6.664,2.419 6.664,2.408 6.664,2.408 L 6.675,2.419 C 6.72,2.397 6.742,2.352 6.776,2.307 6.776,2.307 6.776,2.307 6.765,2.307 L 6.776,2.307 C 6.776,2.307 6.787,2.296 6.787,2.296 L 6.787,2.296 6.787,2.285 C 6.787,2.296 6.787,2.296 6.787,2.296 6.798,2.285 6.798,2.285 6.81,2.273 L 6.81,2.273 C 6.821,2.262 6.832,2.24 6.843,2.217 L 6.843,2.217 C 6.798,2.172 6.787,2.184 6.742,2.24 6.709,2.251 6.675,2.262 6.652,2.296 6.641,2.296 6.619,2.296 6.619,2.307 L 6.619,2.307 C 6.619,2.307 6.619,2.307 6.619,2.307 6.596,2.307 6.563,2.307 6.54,2.33 6.551,2.33 6.551,2.33 6.551,2.33 6.551,2.33 6.551,2.33 6.551,2.33 L 6.54,2.33 C 6.529,2.33 6.507,2.33 6.495,2.341 L 6.495,2.352 C 6.495,2.352 6.495,2.352 6.495,2.352 6.495,2.352 6.495,2.341 6.495,2.341 6.428,2.341 6.361,2.352 6.304,2.374 L 6.304,2.386 C 6.304,2.386 6.304,2.386 6.304,2.386 6.304,2.386 6.304,2.386 6.304,2.374 6.203,2.363 6.102,2.419 5.99,2.386 6.069,2.273 6.091,2.127 6.17,2.015 6.17,2.015 6.17,2.015 6.181,2.015 6.192,2.004 6.192,2.004 6.203,1.993 6.203,1.993 6.215,1.981 6.215,1.981 6.226,1.97 6.226,1.97 6.237,1.959 L 6.237,1.959 C 6.237,1.959 6.248,1.948 6.248,1.948 6.248,1.937 6.248,1.937 6.248,1.925 6.259,1.925 6.259,1.914 6.271,1.914 L 6.271,1.914 C 6.271,1.903 6.282,1.903 6.282,1.892 6.293,1.892 6.293,1.892 6.304,1.892 6.304,1.892 6.316,1.88 6.316,1.88 L 6.327,1.88 C 6.327,1.869 6.327,1.869 6.338,1.858 6.338,1.858 6.349,1.858 6.361,1.858 6.361,1.847 6.383,1.847 6.394,1.835 L 6.394,1.835 C 6.405,1.824 6.428,1.802 6.439,1.791 6.462,1.768 6.462,1.757 6.439,1.734 L 6.439,1.734 C 6.439,1.734 6.439,1.734 6.439,1.734 6.439,1.734 6.439,1.734 6.439,1.734 6.439,1.689 6.495,1.701 6.518,1.667 6.529,1.667 6.54,1.656 6.551,1.645 6.551,1.645 6.54,1.645 6.54,1.645 6.54,1.645 6.54,1.645 6.54,1.645 L 6.551,1.645 C 6.551,1.645 6.563,1.633 6.563,1.633 6.608,1.633 6.652,1.622 6.686,1.577 6.652,1.555 6.608,1.6 6.585,1.555 6.563,1.51 6.619,1.487 6.63,1.442 6.596,1.454 6.563,1.431 6.529,1.442 6.518,1.431 6.507,1.42 6.495,1.409 6.495,1.409 6.495,1.409 6.495,1.397 L 6.495,1.409 C 6.507,1.409 6.529,1.397 6.529,1.386 L 6.529,1.386 6.529,1.386 C 6.529,1.386 6.529,1.386 6.529,1.386 6.54,1.386 6.563,1.386 6.563,1.375 6.585,1.364 6.608,1.375 6.619,1.353 6.63,1.341 6.641,1.341 6.652,1.33 L 6.664,1.33 C 6.697,1.33 6.72,1.319 6.754,1.296 6.731,1.274 6.709,1.285 6.686,1.285 6.675,1.285 6.675,1.285 6.675,1.285 6.664,1.274 6.664,1.274 6.652,1.263 6.652,1.263 6.664,1.263 6.664,1.263 6.675,1.251 6.697,1.263 6.709,1.251 6.709,1.251 6.72,1.251 6.72,1.251 6.731,1.24 6.742,1.24 6.754,1.229 6.765,1.229 6.765,1.229 6.776,1.229 6.776,1.229 6.787,1.218 6.787,1.218 L 6.787,1.207 C 6.798,1.207 6.81,1.207 6.821,1.207 6.832,1.207 6.832,1.195 6.843,1.195 6.843,1.195 6.843,1.195 6.843,1.184 6.843,1.184 6.843,1.184 6.843,1.173 6.821,1.173 6.81,1.173 6.787,1.173 6.776,1.173 6.765,1.184 6.754,1.195 6.754,1.195 6.742,1.195 6.742,1.195 6.731,1.195 6.731,1.207 6.72,1.207 6.709,1.207 6.697,1.207 6.686,1.218 6.675,1.218 6.664,1.218 6.652,1.229 6.619,1.251 6.619,1.229 6.596,1.207 L 6.596,1.207 6.596,1.207 C 6.596,1.207 6.596,1.207 6.608,1.207 6.608,1.24 6.63,1.251 6.652,1.229 6.641,1.229 6.63,1.229 6.619,1.218 6.63,1.207 6.63,1.184 6.652,1.184 6.709,1.162 6.675,1.15 6.652,1.128 6.652,1.117 6.652,1.117 6.652,1.105 6.641,1.105 6.641,1.094 6.63,1.094 6.63,1.094 6.619,1.094 6.619,1.094 6.608,1.061 6.63,1.027 6.652,1.004 6.697,0.9823 6.697,0.9373 6.675,0.9033 6.675,0.9033 6.675,0.9033 6.664,0.9033 L 6.675,0.9033 C 6.742,0.8813 6.742,0.8813 6.742,0.7913 6.765,0.7913 6.787,0.7913 6.787,0.7573 6.776,0.7353 6.754,0.7243 6.72,0.7353 6.709,0.7353 6.686,0.7463 6.664,0.7353 6.641,0.7353 6.652,0.7123 6.652,0.7123 6.652,0.7013 6.652,0.7013 6.652,0.7013 6.652,0.7013 6.652,0.7013 6.652,0.7013 L 6.652,0.7123 C 6.675,0.6903 6.697,0.6793 6.652,0.6563 6.641,0.6453 6.641,0.6343 6.63,0.6233 6.63,0.6233 6.63,0.6233 6.63,0.6113 L 6.63,0.6233 C 6.652,0.6233 6.664,0.6113 6.675,0.5893 6.675,0.5893 6.675,0.5893 6.664,0.5893 6.675,0.5893 6.675,0.5893 6.675,0.5893 L 6.675,0.5893 C 6.675,0.5783 6.686,0.5783 6.686,0.5663 L 6.686,0.5663 6.686,0.5663 C 6.697,0.5663 6.697,0.5553 6.709,0.5553 6.742,0.5443 6.765,0.5223 6.787,0.4773 6.731,0.4883 6.697,0.5103 6.664,0.5333 6.652,0.5333 6.641,0.5333 6.63,0.5553 6.63,0.5553 6.641,0.5553 6.641,0.5553 L 6.63,0.5553 C 6.63,0.5553 6.619,0.5663 6.619,0.5663 L 6.619,0.5663 C 6.619,0.5663 6.619,0.5663 6.619,0.5663 6.608,0.5663 6.585,0.5663 6.585,0.5893 L 6.585,0.5893 C 6.585,0.5893 6.585,0.5893 6.585,0.5893 6.585,0.5893 6.585,0.5893 6.585,0.5893 6.551,0.5893 6.529,0.5893 6.54,0.5443 6.551,0.4543 6.574,0.3643 6.484,0.3083 6.473,0.2973 6.473,0.2973 6.462,0.2863 L 6.462,0.2973 C 6.462,0.2973 6.462,0.2863 6.462,0.2863 6.428,0.2753 6.394,0.2523 6.361,0.2183 6.361,0.2183 6.349,0.2183 6.349,0.2303 6.349,0.2183 6.349,0.2183 6.349,0.2183 L 6.361,0.2183 C 6.349,0.1963 6.338,0.1853 6.316,0.1853 6.316,0.1853 6.316,0.1853 6.316,0.1853 6.316,0.1853 6.316,0.1853 6.316,0.1853 L 6.316,0.1853 C 6.316,0.1733 6.304,0.1623 6.293,0.1623 6.282,0.1623 6.282,0.1733 6.282,0.1733 L 6.282,0.1733 6.293,0.1623 C 6.282,0.1623 6.271,0.1513 6.271,0.1513 L 6.259,0.1513 C 6.259,0.1623 6.259,0.1623 6.271,0.1733 6.259,0.1623 6.259,0.1623 6.259,0.1513 6.271,0.1513 6.271,0.1513 6.271,0.1513 6.282,0.1173 6.282,0.0953 6.237,0.0953 6.226,0.0953 6.203,0.0953 6.181,0.0953 L 6.181,0.1063 C 6.181,0.1063 6.181,0.0953 6.181,0.0953 6.181,0.0953 6.181,0.0953 6.181,0.0953 6.181,0.0613 6.181,0.0393 6.136,0.0273 6.08,0.0273 6.012,0.0163 5.967,0.0723 5.878,0.1733 5.788,0.2633 5.664,0.3313 5.653,0.3423 5.642,0.3643 5.619,0.3763 5.631,0.3763 5.631,0.3763 5.631,0.3873 5.631,0.3763 5.631,0.3763 5.619,0.3763 5.518,0.4323 5.406,0.4773 5.294,0.5333 5.26,0.5443 5.226,0.5553 5.204,0.5893 5.159,0.5783 5.125,0.6113 5.08,0.6233 4.968,0.6683 4.844,0.6903 4.732,0.7353 4.654,0.7463 4.575,0.7803 4.496,0.8023 4.485,0.8023 4.474,0.8253 4.474,0.8363 4.451,0.8363 4.44,0.8473 4.418,0.8473 4.418,0.8363 4.406,0.8363 4.395,0.8253 4.384,0.8253 4.373,0.8253 4.35,0.8253 4.339,0.8363 4.328,0.8363 4.317,0.8473 L 4.317,0.8473 C 4.294,0.8583 4.283,0.8583 4.261,0.8473 L 4.261,0.8473 C 4.227,0.7803 4.216,0.7803 4.171,0.8363 4.126,0.8923 4.081,0.9373 4.002,0.9483 3.946,0.9593 3.901,0.9483 3.834,0.9713 3.856,0.9483 3.856,0.9373 3.867,0.9373 3.879,0.9373 3.89,0.9373 3.901,0.9373 3.912,0.9263 3.912,0.9153 3.901,0.9033 3.867,0.9033 3.845,0.9033 3.811,0.9033 3.811,0.9033 3.8,0.9153 3.8,0.9153 3.789,0.9373 3.766,0.9263 3.755,0.9263 3.71,0.9033 3.654,0.9263 3.598,0.9153 3.587,0.9153 3.564,0.9153 3.553,0.9153 3.542,0.9033 3.542,0.9033 3.531,0.9033 3.497,0.9033 3.474,0.8923 3.441,0.8923 3.441,0.8923 3.429,0.8813 3.418,0.8923 3.407,0.9033 3.418,0.9153 3.429,0.9153 3.429,0.9153 3.441,0.9153 3.441,0.9153 3.463,0.9263 3.486,0.9153 3.497,0.9373 L 3.497,0.9373 C 3.531,0.9713 3.575,0.9483 3.62,0.9483 3.632,0.9483 3.643,0.9483 3.654,0.9593 3.665,0.9593 3.665,0.9593 3.677,0.9713 3.71,0.9713 3.744,0.9713 3.778,0.9713 3.778,0.9713 3.778,0.9823 3.778,0.9823 3.778,0.9823 3.778,0.9823 3.778,0.9933 3.778,0.9933 3.778,0.9933 3.778,0.9933 L 3.778,0.9823 C 3.665,0.9823 3.553,0.9823 3.441,0.9823 3.418,0.9713 3.396,0.9823 3.362,0.9713 3.362,0.9713 3.351,0.9713 3.34,0.9713 3.317,0.9483 3.295,0.9483 3.272,0.9483 L 3.272,0.9483 C 3.25,0.9373 3.216,0.9483 3.194,0.9373 L 3.194,0.9373 3.182,0.9373 C 3.16,0.9033 3.126,0.9153 3.093,0.9153 L 3.093,0.9153 C 3.081,0.8923 3.048,0.9153 3.025,0.9033 3.003,0.8813 2.98,0.9033 2.958,0.8813 L 2.958,0.8813 C 2.935,0.8583 2.902,0.8813 2.89,0.8703 L 2.89,0.8703 C 2.868,0.8363 2.846,0.8473 2.812,0.8473 2.812,0.8473 2.801,0.8473 2.801,0.8473 2.789,0.8363 2.756,0.8473 2.744,0.8253 2.744,0.8363 2.733,0.8363 2.733,0.8253 2.711,0.8023 2.677,0.8143 2.655,0.8143 2.655,0.8143 2.643,0.8143 2.643,0.8143 2.632,0.8023 2.598,0.8023 2.587,0.7913 L 2.576,0.8023 2.576,0.7913 C 2.554,0.7803 2.52,0.7913 2.509,0.7803 2.486,0.7573 2.464,0.7573 2.452,0.7573 2.441,0.7573 2.441,0.7573 2.43,0.7573 2.419,0.7353 2.385,0.7463 2.363,0.7463 2.351,0.7463 2.329,0.7463 2.318,0.7463 2.306,0.7573 2.318,0.7693 2.329,0.7803 2.34,0.7803 2.34,0.7803 2.351,0.7803 2.363,0.7913 2.374,0.7913 2.385,0.7913 L 2.385,0.7913 C 2.396,0.8143 2.408,0.8143 2.419,0.8023 2.419,0.8143 2.419,0.8253 2.419,0.8253 2.408,0.8363 2.396,0.8473 2.396,0.8583 2.385,0.8583 2.363,0.8703 2.351,0.8703 2.34,0.8703 2.34,0.8583 2.329,0.8583 2.318,0.8583 2.318,0.8583 2.306,0.8583 2.306,0.8583 2.295,0.8583 2.295,0.8583 2.295,0.8583 2.284,0.8583 2.284,0.8703 2.273,0.8703 2.262,0.8813 2.262,0.8813 2.25,0.8813 2.25,0.8813 2.239,0.8813 2.228,0.8583 2.205,0.8583 2.194,0.8703 2.16,0.8923 2.205,0.9153 2.194,0.9483 2.172,0.9483 2.149,0.9483 2.127,0.9483 2.104,0.9593 2.116,0.9713 2.116,0.9933 2.104,0.9933 2.104,0.9933 2.093,0.9823 2.082,0.9823 2.071,0.9933 2.059,0.9933 2.048,0.9933 2.037,0.9933 2.037,0.9823 2.026,0.9713 2.015,0.9713 2.003,0.9933 L 2.003,0.9933 C 1.992,0.9933 1.97,0.9933 1.97,1.004 L 1.97,1.004 C 1.958,1.016 1.936,1.004 1.936,1.027 L 1.936,1.027 C 1.913,1.038 1.88,1.038 1.869,1.061 1.835,1.061 1.812,1.061 1.79,1.061 1.801,1.083 1.824,1.105 1.857,1.105 L 1.857,1.105 C 1.869,1.117 1.88,1.117 1.891,1.128 L 1.891,1.128 C 1.913,1.139 1.925,1.15 1.947,1.162 L 1.947,1.162 C 1.97,1.207 2.015,1.207 2.048,1.218 2.048,1.207 2.059,1.207 2.059,1.207 2.059,1.207 2.059,1.207 2.059,1.207 L 2.048,1.218 C 2.059,1.229 2.082,1.229 2.104,1.229 2.116,1.24 2.127,1.24 2.138,1.24 L 2.138,1.24 C 2.149,1.263 2.16,1.251 2.172,1.263 L 2.172,1.263 C 2.183,1.274 2.194,1.274 2.217,1.274 L 2.217,1.274 C 2.217,1.296 2.25,1.285 2.262,1.296 L 2.262,1.296 C 2.273,1.308 2.284,1.308 2.295,1.319 L 2.295,1.319 C 2.306,1.33 2.318,1.33 2.34,1.33 L 2.329,1.33 C 2.34,1.341 2.363,1.341 2.374,1.353 L 2.363,1.353 C 2.374,1.375 2.408,1.353 2.419,1.364 2.43,1.375 2.441,1.375 2.452,1.386 L 2.452,1.386 C 2.464,1.397 2.475,1.397 2.486,1.397 L 2.486,1.397 C 2.497,1.42 2.509,1.409 2.52,1.42 2.52,1.42 2.52,1.42 2.52,1.42 2.497,1.442 2.464,1.431 2.441,1.442 2.408,1.442 2.374,1.431 2.351,1.454 2.34,1.465 2.329,1.465 2.318,1.454 2.295,1.476 2.262,1.476 2.228,1.487 L 2.217,1.499 2.217,1.487 C 2.127,1.476 2.048,1.499 1.97,1.487 1.947,1.487 1.925,1.499 1.925,1.499 1.936,1.566 1.857,1.521 1.846,1.555 1.812,1.555 1.779,1.555 1.756,1.555 1.734,1.555 1.7,1.555 1.689,1.588 L 1.689,1.577 C 1.633,1.588 1.565,1.555 1.509,1.6 L 1.509,1.6 C 1.464,1.611 1.408,1.588 1.352,1.611 1.352,1.611 1.341,1.611 1.341,1.611 1.329,1.611 1.329,1.611 1.318,1.611 1.307,1.622 1.285,1.622 1.273,1.611 1.228,1.622 1.183,1.6 1.15,1.633 1.139,1.633 1.127,1.633 1.116,1.633 1.094,1.645 1.049,1.633 1.026,1.656 L 1.026,1.656 C 1.015,1.656 1.015,1.656 1.015,1.667 1.015,1.656 1.026,1.656 1.026,1.656 0.9926,1.645 0.9701,1.645 0.9477,1.667 0.8915,1.701 0.8353,1.734 0.7792,1.746 0.768,1.757 0.7567,1.757 0.7455,1.768 0.723,1.779 0.7118,1.779 0.7006,1.768 0.6781,1.768 0.6557,1.768 0.6444,1.791 0.6332,1.791 0.6332,1.791 0.6332,1.791 0.622,1.791 0.622,1.791 0.622,1.802 0.622,1.802 0.622,1.802 0.6107,1.802 0.622,1.802 0.622,1.791 0.6332,1.791 0.6107,1.791 0.5883,1.779 0.5658,1.802 0.5546,1.802 0.5434,1.813 0.5321,1.824 0.5209,1.824 0.5097,1.824 0.4985,1.835 L 0.4985,1.847 C 0.4985,1.835 0.4985,1.835 0.4985,1.835 0.476,1.835 0.4535,1.847 0.4423,1.869 L 0.4535,1.88 C 0.4535,1.88 0.4535,1.88 0.4423,1.869 0.4198,1.88 0.4086,1.892 0.3974,1.914 0.3862,1.914 0.3637,1.914 0.3637,1.925 0.3637,1.925 0.3637,1.925 0.3637,1.925 L 0.3637,1.925 C 0.3525,1.937 0.3525,1.937 0.3412,1.948 L 0.3412,1.948 0.3412,1.948 C 0.3278,1.948 0.3154,1.948 0.3075,1.959 0.3075,1.959 0.3109,1.959 0.3109,1.97 L 0.3075,1.959 C 0.303,1.97 0.2963,1.97 0.2907,1.981 L 0.2941,1.981 0.2941,1.981 0.2907,1.981 C 0.284,1.981 0.2783,1.993 0.2716,1.993 0.2738,1.993 0.2738,1.993 0.2772,1.993 0.2761,1.993 0.2738,2.004 0.2738,2.004 L 0.2716,1.993 C 0.266,2.004 0.2604,2.004 0.2548,2.015 0.2559,2.015 0.2581,2.015 0.2581,2.015 L 0.2581,2.015 0.2548,2.015 C 0.2491,2.015 0.2435,2.026 0.2379,2.026 0.2323,2.038 0.2267,2.038 0.2211,2.049 0.2211,2.049 0.2211,2.049 0.2211,2.049 L 0.2211,2.049 C 0.2132,2.049 0.2087,2.06 0.2031,2.071 0.1975,2.071 0.1907,2.082 0.1863,2.082 L 0.1874,2.082 0.1863,2.082 C 0.1728,2.082 0.1593,2.082 0.1526,2.094 0.1537,2.105 0.1548,2.105 0.1559,2.105 0.1537,2.105 0.1537,2.105 0.1503,2.105 L 0.1526,2.094 C 0.1447,2.094 0.1391,2.105 0.1335,2.105 0.1279,2.105 0.1222,2.116 0.1166,2.116 0.0919,2.139 0.0998,2.161 0.0987,2.184 0.0762,2.195 0.0605,2.228 0.0302,2.206 0.0156,2.206 -0.0013,2.206 0.0021,2.228 0.0043,2.24 0.0189,2.24 0.0302,2.24 0.0436,2.251 0.047,2.262 0.047,2.273 0.0459,2.273 0.0436,2.273 0.0425,2.285 0.0414,2.285 0.0425,2.285 0.047,2.296 0.0886,2.307 0.0942,2.307 0.0987,2.24 0.0987,2.228 0.0987,2.217 0.0987,2.206 0.1054,2.195 0.111,2.195 0.1166,2.184 0.1222,2.184 0.1279,2.184 0.1335,2.184 0.1391,2.184 0.1447,2.172 0.1503,2.172 L 0.1481,2.172 C 0.1481,2.172 0.1492,2.172 0.1503,2.161 0.1503,2.172 0.1503,2.172 0.1503,2.172 0.1559,2.161 0.1616,2.161 0.1683,2.15 L 0.166,2.15 C 0.166,2.15 0.1672,2.15 0.1672,2.15 0.1672,2.15 0.1672,2.15 0.1683,2.15 0.2177,2.161 0.2402,2.139 0.239,2.082 0.2447,2.082 0.2503,2.071 0.2581,2.071 0.2626,2.06 0.2682,2.06 0.2738,2.049 0.2817,2.06 0.2896,2.06 0.2952,2.06 0.3109,2.082 0.3188,2.105 0.3525,2.094 0.3749,2.082 0.3749,2.06 0.3749,2.038 0.3749,2.015 0.3862,1.981 0.3974,1.959 0.3974,1.959 0.4086,1.948 0.4198,1.948 L 0.4086,1.948 C 0.4086,1.948 0.4086,1.948 0.4086,1.948 L 0.4198,1.948 C 0.4311,1.948 0.4423,1.937 0.4535,1.925 L 0.4535,1.925 0.4535,1.925 C 0.4648,1.925 0.476,1.925 0.4872,1.914 0.4985,1.914 0.5097,1.903 0.5209,1.892 0.5209,1.892 0.5321,1.88 0.5321,1.88 L 0.5321,1.88 0.5321,1.88 C 0.5546,1.869 0.5771,1.88 0.5883,1.858 0.5995,1.858 0.6107,1.858 0.622,1.835 0.6557,1.847 0.6894,1.824 0.723,1.824 0.723,1.892 0.723,1.903 0.6669,1.914 0.6107,1.914 0.5995,1.937 0.5995,1.981 0.5546,1.993 0.4985,2.015 0.4648,2.06 0.4311,2.105 0.4423,2.139 0.4985,2.139 0.5209,2.139 0.5434,2.161 0.5546,2.139 0.5321,2.082 0.5434,2.038 0.5995,2.015 0.622,2.015 0.6444,2.015 0.6557,2.004 0.6669,1.993 0.6669,1.993 0.6781,1.993 0.6781,1.993 0.6894,1.981 0.6894,1.981 L 0.6894,1.981 C 0.7006,1.97 0.7006,1.97 0.7118,1.97 0.7118,1.959 0.723,1.959 0.723,1.959 0.7343,1.959 0.7343,1.97 0.7455,1.981 0.7455,2.004 0.723,2.026 0.7343,2.049 0.768,2.116 0.768,2.195 0.8129,2.262 0.8353,2.318 0.869,2.363 0.9364,2.386 0.9364,2.374 0.9364,2.374 0.9364,2.374 0.9364,2.374 0.9364,2.374 0.9364,2.374 L 0.9364,2.386 C 0.9477,2.408 0.9701,2.419 1.004,2.419 1.037,2.419 1.06,2.419 1.082,2.419 1.094,2.419 1.082,2.408 1.094,2.408 1.094,2.408 1.094,2.408 1.094,2.408 L 1.082,2.419 C 1.082,2.442 1.049,2.431 1.037,2.442 1.026,2.442 1.015,2.453 0.9926,2.453 0.9701,2.453 0.9364,2.442 0.9252,2.464 0.9252,2.464 0.914,2.464 0.914,2.464 L 0.9252,2.464 C 0.914,2.476 0.8915,2.476 0.8803,2.487 0.8803,2.487 0.8803,2.487 0.869,2.487 0.8578,2.498 0.8353,2.487 0.8129,2.509 L 0.8129,2.498 C 0.8353,2.498 0.8578,2.509 0.869,2.487 0.8353,2.487 0.8129,2.476 0.7792,2.498 0.7792,2.498 0.768,2.498 0.768,2.498 0.723,2.498 0.6894,2.498 0.6894,2.554 0.6781,2.565 0.6669,2.565 0.6557,2.565 0.6557,2.577 0.6444,2.577 0.6444,2.577 0.5995,2.509 0.5995,2.509 0.5321,2.52 0.5321,2.509 0.5209,2.509 0.5209,2.498 L 0.5209,2.498 C 0.476,2.476 0.4872,2.52 0.4872,2.532 0.476,2.532 0.476,2.532 0.4648,2.532 0.4311,2.532 0.3974,2.532 0.3749,2.532 0.3637,2.532 0.3525,2.543 0.3525,2.554 0.3525,2.565 0.3637,2.565 0.3637,2.565 0.4086,2.565 0.4535,2.588 0.4985,2.554 0.5097,2.554 0.5209,2.554 0.5321,2.554 0.5771,2.599 0.5883,2.655 0.6107,2.7 0.5883,2.711 0.5658,2.711 0.5546,2.723 0.5434,2.734 0.5434,2.734 0.5434,2.734 0.4985,2.734 0.4648,2.734 0.4311,2.723 0.4198,2.711 0.4086,2.7 0.3974,2.689 0.3974,2.666 0.3862,2.655 0.3637,2.655 0.3525,2.666 0.3525,2.666 0.3412,2.678 0.33,2.689 0.3042,2.689 0.3255,2.711 0.3412,2.79 0.3525,2.79 0.4311,2.768 0.4648,2.768 0.4985,2.768 0.5321,2.768 0.5321,2.801 0.5434,2.824 0.5771,2.846 0.5995,2.857 0.622,2.846 0.622,2.812 0.6444,2.812 0.6669,2.812 0.6894,2.812 0.7006,2.824 0.7006,2.812 0.7118,2.812 0.7118,2.812 0.7118,2.812 0.7118,2.812 0.7006,2.812 0.7006,2.812 0.6894,2.812 0.6894,2.835 0.6894,2.846 0.6894,2.869 0.6781,2.869 0.6557,2.869 0.6444,2.869 0.6332,2.88 0.6332,2.891 0.6444,2.902 0.6557,2.902 0.6781,2.902 0.6894,2.902 0.6894,2.914 0.6894,2.914 0.6894,2.925 0.7118,2.958 0.7118,3.003 0.6894,3.037 0.7006,3.048 0.723,3.048 0.723,3.06 0.7343,3.06 0.7343,3.048 0.7455,3.037 0.7792,3.048 0.8353,3.015 0.8466,3.082 0.8466,3.093 0.869,3.093 0.8803,3.082 0.9364,3.071 0.9813,3.082 1.037,3.082 1.06,3.104 1.094,3.116 1.105,3.149 1.139,3.149 1.127,3.127 1.127,3.116 L 1.127,3.116 C 1.127,3.116 1.127,3.116 1.127,3.116 1.127,3.116 1.127,3.116 1.127,3.116 1.116,3.116 1.116,3.138 1.105,3.149 1.105,3.149 1.094,3.149 1.082,3.149 1.037,3.149 1.004,3.138 0.9813,3.183 1.037,3.239 1.105,3.205 1.161,3.217 1.172,3.228 1.183,3.228 1.195,3.217 1.195,3.217 1.195,3.217 1.195,3.217 1.195,3.217 1.195,3.217 1.195,3.217 L 1.195,3.217 C 1.183,3.217 1.172,3.217 1.161,3.217 1.161,3.228 1.161,3.239 1.183,3.25 1.183,3.262 1.183,3.273 1.195,3.284 1.206,3.295 1.206,3.295 1.217,3.307 L 1.217,3.295 C 1.217,3.295 1.217,3.295 1.217,3.295 1.217,3.307 1.217,3.307 1.217,3.307 1.217,3.351 1.251,3.363 1.285,3.396 1.285,3.396 1.296,3.408 1.296,3.408 L 1.307,3.408 C 1.307,3.408 1.307,3.408 1.296,3.408 1.296,3.419 1.296,3.419 1.296,3.43 1.285,3.453 1.296,3.464 1.318,3.475 1.329,3.497 1.341,3.509 1.352,3.52 1.363,3.52 1.363,3.52 1.374,3.531 L 1.374,3.52 C 1.374,3.531 1.374,3.531 1.374,3.531 1.374,3.542 1.386,3.542 1.408,3.554 1.408,3.554 1.408,3.542 1.408,3.542 1.408,3.542 1.408,3.542 1.408,3.542 L 1.408,3.554 C 1.408,3.554 1.419,3.554 1.419,3.565 L 1.431,3.554 C 1.431,3.554 1.431,3.565 1.431,3.565 1.431,3.565 1.419,3.565 1.419,3.565 1.431,3.576 1.442,3.587 1.453,3.587 1.475,3.599 1.487,3.599 1.509,3.599 1.509,3.599 1.509,3.599 1.509,3.599 1.509,3.599 1.509,3.599 1.509,3.599 L 1.509,3.599 C 1.52,3.61 1.532,3.621 1.543,3.621 1.565,3.643 1.577,3.632 1.599,3.632 1.61,3.643 1.644,3.632 1.655,3.655 L 1.655,3.643 1.666,3.655 C 1.689,3.666 1.711,3.655 1.723,3.666 L 1.723,3.666 C 1.723,3.677 1.734,3.677 1.734,3.688 1.756,3.688 1.767,3.688 1.79,3.688 L 1.79,3.688 C 1.79,3.688 1.79,3.688 1.79,3.688 1.812,3.711 1.846,3.7 1.88,3.711 1.88,3.7 1.88,3.7 1.88,3.7 1.88,3.7 1.88,3.7 1.88,3.7 L 1.88,3.711 C 1.88,3.711 1.891,3.722 1.891,3.722 1.913,3.722 1.925,3.722 1.947,3.722 1.947,3.722 1.947,3.722 1.947,3.722 1.947,3.722 1.947,3.722 1.947,3.722 L 1.947,3.722 C 1.958,3.745 1.981,3.733 1.992,3.745 2.015,3.767 2.048,3.756 2.071,3.756 2.093,3.778 2.127,3.756 2.149,3.767 2.172,3.767 2.194,3.767 2.205,3.778 2.239,3.801 2.273,3.789 2.295,3.789 L 2.295,3.789 C 2.318,3.823 2.34,3.801 2.363,3.812 2.363,3.812 2.363,3.801 2.363,3.801 L 2.363,3.812 C 2.385,3.834 2.408,3.823 2.43,3.834 L 2.441,3.823 C 2.441,3.823 2.441,3.823 2.43,3.834 2.441,3.834 2.452,3.846 2.452,3.846 2.587,3.857 2.711,3.868 2.834,3.879 2.846,3.891 2.857,3.891 2.868,3.891 2.902,3.902 2.935,3.902 2.98,3.902 2.98,3.902 2.992,3.913 2.992,3.913 3.081,3.913 3.182,3.913 3.272,3.913 L 3.272,3.913 C 3.272,3.924 3.283,3.924 3.283,3.913 3.295,3.913 3.295,3.913 3.306,3.913 3.317,3.924 3.328,3.924 3.34,3.924 3.351,3.924 3.373,3.924 3.385,3.924 3.441,3.935 3.486,3.935 3.542,3.947 3.654,3.958 3.778,3.947 3.901,3.947 3.912,3.969 3.912,3.98 3.935,3.969 3.957,3.969 3.98,3.969 4.002,3.969 4.025,3.958 4.047,3.947 4.07,3.947 4.216,3.969 4.362,3.924 4.508,3.935 4.519,3.935 4.53,3.924 4.541,3.913 4.552,3.913 4.564,3.913 4.575,3.913 4.609,3.913 4.642,3.913 4.687,3.913 4.71,3.913 4.743,3.924 4.766,3.891 L 4.766,3.891 C 4.822,3.879 4.878,3.902 4.923,3.879 L 4.934,3.879 4.934,3.879 C 4.968,3.879 4.99,3.891 5.013,3.868 5.069,3.868 5.092,3.846 5.08,3.789 5.092,3.789 5.103,3.767 5.103,3.756 L 5.103,3.756 C 5.103,3.756 5.103,3.756 5.103,3.756 5.103,3.756 5.103,3.756 5.103,3.756 5.136,3.756 5.17,3.767 5.193,3.778 5.215,3.789 5.238,3.789 5.26,3.778 5.327,3.767 5.383,3.733 5.44,3.688 5.428,3.688 5.428,3.688 5.428,3.688 L 5.44,3.688 C 5.473,3.666 5.518,3.655 5.552,3.632 5.563,3.632 5.563,3.632 5.563,3.632 5.574,3.632 5.586,3.632 5.586,3.632 5.586,3.632 5.586,3.621 5.586,3.621 5.597,3.621 5.597,3.621 5.608,3.621 5.642,3.61 5.675,3.599 5.709,3.621 L 5.709,3.621 C 5.72,3.621 5.72,3.632 5.732,3.632 5.765,3.666 5.788,3.655 5.821,3.621 5.833,3.61 5.833,3.599 5.821,3.587 5.81,3.565 5.821,3.542 5.833,3.531 L 5.833,3.531 C 5.833,3.531 5.833,3.531 5.833,3.52 5.833,3.531 5.833,3.531 5.833,3.531 5.866,3.531 5.9,3.509 5.923,3.531 5.967,3.565 5.979,3.531 5.99,3.497 L 5.99,3.497 C 5.99,3.497 5.99,3.497 5.99,3.497 6.001,3.497 6.012,3.497 6.024,3.497 6.147,3.43 6.282,3.396 6.394,3.307 L 6.394,3.307 C 6.405,3.284 6.428,3.307 6.439,3.284 6.462,3.273 6.473,3.262 6.495,3.25 L 6.495,3.25 C 6.507,3.239 6.507,3.228 6.495,3.217 6.473,3.217 6.45,3.217 6.428,3.217 6.394,3.194 6.394,3.172 6.372,3.149 6.372,3.138 6.361,3.138 6.361,3.127 6.361,3.127 6.361,3.116 6.361,3.104 6.361,3.104 6.372,3.104 6.372,3.093 L 6.372,3.093 6.372,3.093 C 6.372,3.093 6.372,3.093 6.372,3.093 6.383,3.093 6.383,3.082 6.394,3.082 L 6.394,3.082 C 6.394,3.082 6.394,3.082 6.394,3.071 6.394,3.082 6.394,3.082 6.394,3.082 6.405,3.082 6.417,3.071 6.428,3.06 6.428,3.06 6.428,3.06 6.439,3.06 6.45,3.06 6.45,3.048 6.462,3.037 L 6.462,3.037 C 6.462,3.037 6.462,3.037 6.462,3.037 6.462,3.037 6.462,3.026 6.462,3.026 6.462,3.026 6.462,3.026 6.462,3.026 6.462,3.026 6.473,3.015 6.462,3.015 6.439,3.003 6.405,3.015 6.383,3.003 6.361,3.003 6.372,2.992 6.372,2.97 6.383,2.97 6.405,2.97 6.405,2.958 6.405,2.958 6.405,2.947 6.405,2.947 6.405,2.947 6.405,2.947 6.405,2.947 L 6.405,2.958 C 6.417,2.947 6.417,2.947 6.428,2.936 L 6.428,2.936 C 6.428,2.936 6.428,2.936 6.428,2.936 6.428,2.936 6.439,2.925 6.439,2.925 L 6.439,2.914 C 6.439,2.925 6.439,2.925 6.439,2.925 6.45,2.914 6.45,2.914 6.462,2.902 6.484,2.902 6.518,2.902 6.529,2.869 6.495,2.857 6.45,2.891 6.428,2.846 L 6.428,2.846 6.428,2.846 C 6.428,2.846 6.428,2.846 6.428,2.846 6.507,2.824 6.596,2.801 6.652,2.734 6.664,2.723 6.675,2.723 6.686,2.711 L 6.686,2.711 6.686,2.711 C 6.686,2.711 6.686,2.711 6.686,2.711 6.697,2.711 6.72,2.711 6.72,2.689 L 6.72,2.689 C 6.72,2.689 6.72,2.689 6.72,2.689 6.731,2.689 6.754,2.689 6.754,2.678 L 6.754,2.678 C 6.754,2.678 6.754,2.678 6.754,2.666 6.754,2.678 6.754,2.678 6.754,2.678 6.776,2.678 6.787,2.678 6.787,2.655 L 6.787,2.655 6.787,2.655 C 6.787,2.655 6.787,2.655 6.787,2.655 6.81,2.655 6.821,2.655 6.832,2.644 L 6.821,2.633 C 6.821,2.633 6.821,2.633 6.821,2.633 6.821,2.633 6.821,2.644 6.832,2.644 6.843,2.644 6.855,2.633 6.866,2.622 6.855,2.622 6.855,2.622 6.855,2.622 L 6.866,2.622 C 6.866,2.622 6.877,2.61 6.877,2.61 L 6.877,2.61 6.877,2.61 C 6.888,2.61 6.911,2.599 6.911,2.588 6.922,2.588 6.922,2.577 6.933,2.577 L 6.933,2.577 C 6.944,2.565 6.956,2.565 6.967,2.554 6.978,2.543 6.989,2.532 6.989,2.52 L 6.989,2.52 Z"></path>
</svg>